<?xml version="1.0" encoding="UTF-8"?>
<svg xmlns="http://www.w3.org/2000/svg" viewBox="0 0 760 600" width="760" height="600">
  <rect width="760" height="600" fill="white"/>
  <text x="380.0" y="26" text-anchor="middle" font-size="16" font-family="serif">
    方位角应用题：船由西向东航行，会触礁吗？
  </text>
  <text x="380.0" y="48" text-anchor="middle" font-size="12" fill="#666">
    A处测P北偏东60&#176;，行 AB=10 海里到 B 测P北偏东30&#176;，暗礁半径 8 海里
  </text>
  <line x1="88.3" y1="451.7" x2="671.7" y2="451.7" stroke="#333" stroke-width="1.5"/>
  <polygon points="671.7,451.7 661.7,446.7 661.7,456.7" fill="#333"/>
  <text x="667.7" y="469.7" font-size="12" fill="#333">向东航行</text>
  <polyline fill="#F44336" fill-opacity="0.06" stroke="#E53935" stroke-width="1.4" stroke-dasharray="4 3" points="706.7,249.6 706.6,246.3 706.6,243.1 706.4,239.8 706.2,236.6 706.0,233.3 705.6,230.1 705.3,226.8 704.9,223.6 704.4,220.4 703.8,217.2 703.2,214.0 702.6,210.8 701.9,207.6 701.1,204.4 700.3,201.3 699.4,198.1 698.5,195.0 697.5,191.9 696.5,188.8 695.4,185.8 694.3,182.7 693.1,179.7 691.8,176.7 690.5,173.7 689.2,170.7 687.8,167.8 686.3,164.8 684.8,162.0 683.3,159.1 681.7,156.3 680.0,153.5 678.3,150.7 676.6,147.9 674.8,145.2 672.9,142.5 671.0,139.9 669.1,137.3 667.1,134.7 665.1,132.1 663.0,129.6 660.9,127.1 658.7,124.7 656.5,122.3 654.3,119.9 652.0,117.6 649.7,115.3 647.3,113.1 644.9,110.9 642.5,108.7 640.0,106.6 637.5,104.5 634.9,102.5 632.3,100.5 629.7,98.6 627.1,96.7 624.4,94.8 621.7,93.0 618.9,91.3 616.1,89.6 613.3,87.9 610.5,86.3 607.6,84.8 604.7,83.3 601.8,81.8 598.9,80.4 595.9,79.1 592.9,77.8 589.9,76.5 586.9,75.3 583.8,74.2 580.8,73.1 577.7,72.1 574.6,71.1 571.5,70.2 568.3,69.3 565.2,68.5 562.0,67.7 558.8,67.0 555.6,66.4 552.4,65.8 549.2,65.2 546.0,64.7 542.7,64.3 539.5,63.9 536.3,63.6 533.0,63.4 529.8,63.2 526.5,63.0 523.3,63.0 520.0,62.9 516.7,63.0 513.5,63.0 510.2,63.2 507.0,63.4 503.7,63.6 500.5,63.9 497.3,64.3 494.0,64.7 490.8,65.2 487.6,65.8 484.4,66.4 481.2,67.0 478.0,67.7 474.8,68.5 471.7,69.3 468.5,70.2 465.4,71.1 462.3,72.1 459.2,73.1 456.2,74.2 453.1,75.3 450.1,76.5 447.1,77.8 444.1,79.1 441.1,80.4 438.2,81.8 435.3,83.3 432.4,84.8 429.5,86.3 426.7,87.9 423.9,89.6 421.1,91.3 418.3,93.0 415.6,94.8 412.9,96.7 410.3,98.6 407.7,100.5 405.1,102.5 402.5,104.5 400.0,106.6 397.5,108.7 395.1,110.9 392.7,113.1 390.3,115.3 388.0,117.6 385.7,119.9 383.5,122.3 381.3,124.7 379.1,127.1 377.0,129.6 374.9,132.1 372.9,134.7 370.9,137.3 369.0,139.9 367.1,142.5 365.2,145.2 363.4,147.9 361.7,150.7 360.0,153.5 358.3,156.3 356.7,159.1 355.2,162.0 353.7,164.8 352.2,167.8 350.8,170.7 349.5,173.7 348.2,176.7 346.9,179.7 345.7,182.7 344.6,185.8 343.5,188.8 342.5,191.9 341.5,195.0 340.6,198.1 339.7,201.3 338.9,204.4 338.1,207.6 337.4,210.8 336.8,214.0 336.2,217.2 335.6,220.4 335.1,223.6 334.7,226.8 334.4,230.1 334.0,233.3 333.8,236.6 333.6,239.8 333.4,243.1 333.4,246.3 333.3,249.6 333.4,252.9 333.4,256.1 333.6,259.4 333.8,262.6 334.0,265.9 334.4,269.1 334.7,272.3 335.1,275.6 335.6,278.8 336.2,282.0 336.8,285.2 337.4,288.4 338.1,291.6 338.9,294.8 339.7,297.9 340.6,301.0 341.5,304.2 342.5,307.3 343.5,310.4 344.6,313.4 345.7,316.5 346.9,319.5 348.2,322.5 349.5,325.5 350.8,328.5 352.2,331.4 353.7,334.3 355.2,337.2 356.7,340.1 358.3,342.9 360.0,345.7 361.7,348.5 363.4,351.3 365.2,354.0 367.1,356.7 369.0,359.3 370.9,361.9 372.9,364.5 374.9,367.1 377.0,369.6 379.1,372.1 381.3,374.5 383.5,376.9 385.7,379.3 388.0,381.6 390.3,383.9 392.7,386.1 395.1,388.3 397.5,390.5 400.0,392.6 402.5,394.7 405.1,396.7 407.7,398.7 410.3,400.6 412.9,402.5 415.6,404.3 418.3,406.1 421.1,407.9 423.9,409.6 426.7,411.3 429.5,412.9 432.4,414.4 435.3,415.9 438.2,417.4 441.1,418.8 444.1,420.1 447.1,421.4 450.1,422.7 453.1,423.9 456.2,425.0 459.2,426.1 462.3,427.1 465.4,428.1 468.5,429.0 471.7,429.9 474.8,430.7 478.0,431.5 481.2,432.2 484.4,432.8 487.6,433.4 490.8,434.0 494.0,434.4 497.3,434.9 500.5,435.2 503.7,435.6 507.0,435.8 510.2,436.0 513.5,436.1 516.7,436.2 520.0,436.3 523.3,436.2 526.5,436.1 529.8,436.0 533.0,435.8 536.3,435.6 539.5,435.2 542.7,434.9 546.0,434.4 549.2,434.0 552.4,433.4 555.6,432.8 558.8,432.2 562.0,431.5 565.2,430.7 568.3,429.9 571.5,429.0 574.6,428.1 577.7,427.1 580.8,426.1 583.8,425.0 586.9,423.9 589.9,422.7 592.9,421.4 595.9,420.1 598.9,418.8 601.8,417.4 604.7,415.9 607.6,414.4 610.5,412.9 613.3,411.3 616.1,409.6 618.9,407.9 621.7,406.1 624.4,404.3 627.1,402.5 629.7,400.6 632.3,398.7 634.9,396.7 637.5,394.7 640.0,392.6 642.5,390.5 644.9,388.3 647.3,386.1 649.7,383.9 652.0,381.6 654.3,379.3 656.5,376.9 658.7,374.5 660.9,372.1 663.0,369.6 665.1,367.1 667.1,364.5 669.1,361.9 671.0,359.3 672.9,356.7 674.8,354.0 676.6,351.3 678.3,348.5 680.0,345.7 681.7,342.9 683.3,340.1 684.8,337.2 686.3,334.3 687.8,331.4 689.2,328.5 690.5,325.5 691.8,322.5 693.1,319.5 694.3,316.5 695.4,313.4 696.5,310.4 697.5,307.3 698.5,304.2 699.4,301.0 700.3,297.9 701.1,294.8 701.9,291.6 702.6,288.4 703.2,285.2 703.8,282.0 704.4,278.8 704.9,275.6 705.3,272.3 705.6,269.1 706.0,265.9 706.2,262.6 706.4,259.4 706.6,256.1 706.6,252.9 706.7,249.6"/>
  <text x="342.7" y="249.6" font-size="11" fill="#E53935">暗礁区(半径8)</text>
  <line x1="170.0" y1="451.7" x2="170.0" y2="300.0" stroke="#888" stroke-width="1" stroke-dasharray="4 3"/>
  <text x="166.0" y="296.0" font-size="11" fill="#666">北</text>
  <circle cx="170.0" cy="451.7" r="4.5" fill="#000"/>
  <text x="166.0" y="469.7" font-size="13">A</text>
  <line x1="403.3" y1="451.7" x2="403.3" y2="300.0" stroke="#888" stroke-width="1" stroke-dasharray="4 3"/>
  <text x="399.3" y="296.0" font-size="11" fill="#666">北</text>
  <circle cx="403.3" cy="451.7" r="4.5" fill="#000"/>
  <text x="399.3" y="469.7" font-size="13">B</text>
  <line x1="170.0" y1="451.7" x2="520.0" y2="249.6" stroke="#1565C0" stroke-width="1.6"/>
  <line x1="403.3" y1="451.7" x2="520.0" y2="249.6" stroke="#2E7D32" stroke-width="1.6"/>
  <path d="M 170.0 417.7 A 34 34 0 0 1 199.4 434.7" fill="none" stroke="#1565C0" stroke-width="1.4"/>
  <text x="186.0" y="413.6" font-size="11" fill="#1565C0">60&#176;</text>
  <path d="M 403.3 421.7 A 30 30 0 0 1 418.3 425.7" fill="none" stroke="#2E7D32" stroke-width="1.4"/>
  <text x="409.7" y="413.0" font-size="11" fill="#2E7D32">30&#176;</text>
  <circle cx="520.0" cy="249.6" r="5" fill="#9C27B0"/>
  <text x="528.0" y="245.6" font-size="13" fill="#7B1FA2">P (小岛)</text>
  <line x1="520.0" y1="249.6" x2="520.0" y2="451.7" stroke="#E65100" stroke-width="2" stroke-dasharray="5 3"/>
  <rect x="508.0" y="439.7" width="12" height="12" fill="none" stroke="#E65100" stroke-width="1"/>
  <circle cx="520.0" cy="451.7" r="3.5" fill="#E65100"/>
  <text x="518.0" y="469.7" font-size="12" fill="#E65100">D</text>
  <text x="528.0" y="350.6" font-size="12" fill="#E65100">PD=5&#8730;3&#8776;8.66</text>
  <text x="270.7" y="469.7" font-size="11">AB=10</text>

  <rect x="510" y="80" width="232" height="104" fill="white" fill-opacity="0.93" stroke="#ccc" rx="4"/>
  <text x="522" y="100" font-size="11">&#8736;PAB = 90-60 = 30&#176;</text>
  <text x="522" y="118" font-size="11">&#8736;PBA = 180-(90-30) = 120&#176;</text>
  <text x="522" y="136" font-size="11">&#8736;APB = 30&#176; -&gt; 等腰 BP=AB=10</text>
  <text x="522" y="154" font-size="11">PD = BP&#183;sin60&#176; = 5&#8730;3 &#8776; 8.66</text>
  <text x="522" y="172" font-size="11" fill="#E53935">8.66 &gt; 8，不会触礁</text>
</svg>
