<?xml version="1.0" encoding="UTF-8"?>
<svg xmlns="http://www.w3.org/2000/svg" viewBox="0 0 720 560" width="720" height="560">
  <rect width="720" height="560" fill="white"/>
  <text x="360.0" y="26" text-anchor="middle" font-size="15" font-family="serif">
    用导数求最大体积: V(x)=x(12-2x)&#178;, 0&lt;x&lt;6
  </text>
  <text x="360.0" y="46" text-anchor="middle" font-size="12" fill="#666">
    V'(x)=12(x-2)(x-6); x=2 时体积最大 = 128
  </text>
  <line x1="58.0" y1="473.9" x2="662.0" y2="473.9" stroke="#999" stroke-width="1"/>
  <line x1="108.3" y1="122.0" x2="108.3" y2="502.0" stroke="#999" stroke-width="1"/>
  <text x="192.2" y="487.9" text-anchor="middle" font-size="9">1</text>
  <text x="276.1" y="487.9" text-anchor="middle" font-size="9">2</text>
  <text x="360.0" y="487.9" text-anchor="middle" font-size="9">3</text>
  <text x="443.9" y="487.9" text-anchor="middle" font-size="9">4</text>
  <text x="527.8" y="487.9" text-anchor="middle" font-size="9">5</text>
  <text x="611.7" y="487.9" text-anchor="middle" font-size="9">6</text>
  <text x="102.3" y="383.0" text-anchor="end" font-size="9">40</text>
  <text x="102.3" y="289.2" text-anchor="end" font-size="9">80</text>
  <text x="102.3" y="195.4" text-anchor="end" font-size="9">120</text>
  <text x="660.0" y="488.9" font-size="11" font-style="italic">x</text>
  <text x="112.3" y="128.0" font-size="11" font-style="italic">V</text>
  <polyline fill="none" stroke="#9C27B0" stroke-width="2.6" points="108.3,473.9 110.0,467.1 111.7,460.5 113.4,454.0 115.0,447.5 116.7,441.2 118.4,434.9 120.1,428.7 121.8,422.7 123.4,416.6 125.1,410.7 126.8,404.9 128.5,399.1 130.1,393.5 131.8,387.9 133.5,382.4 135.2,377.0 136.9,371.7 138.5,366.4 140.2,361.2 141.9,356.2 143.6,351.2 145.2,346.2 146.9,341.4 148.6,336.6 150.3,331.9 152.0,327.3 153.6,322.8 155.3,318.4 157.0,314.0 158.7,309.7 160.3,305.5 162.0,301.3 163.7,297.3 165.4,293.3 167.1,289.4 168.7,285.5 170.4,281.7 172.1,278.1 173.8,274.4 175.4,270.9 177.1,267.4 178.8,264.0 180.5,260.7 182.2,257.4 183.8,254.2 185.5,251.1 187.2,248.0 188.9,245.0 190.5,242.1 192.2,239.3 193.9,236.5 195.6,233.8 197.3,231.1 198.9,228.6 200.6,226.0 202.3,223.6 204.0,221.2 205.6,218.9 207.3,216.6 209.0,214.4 210.7,212.3 212.4,210.2 214.0,208.2 215.7,206.3 217.4,204.4 219.1,202.6 220.7,200.8 222.4,199.1 224.1,197.5 225.8,195.9 227.5,194.4 229.1,192.9 230.8,191.5 232.5,190.1 234.2,188.9 235.8,187.6 237.5,186.4 239.2,185.3 240.9,184.2 242.6,183.2 244.2,182.2 245.9,181.3 247.6,180.5 249.3,179.7 250.9,178.9 252.6,178.2 254.3,177.6 256.0,177.0 257.7,176.4 259.3,175.9 261.0,175.5 262.7,175.1 264.4,174.7 266.0,174.4 267.7,174.2 269.4,174.0 271.1,173.8 272.8,173.7 274.4,173.6 276.1,173.6 277.8,173.6 279.5,173.7 281.1,173.8 282.8,174.0 284.5,174.2 286.2,174.4 287.9,174.7 289.5,175.0 291.2,175.4 292.9,175.8 294.6,176.2 296.2,176.7 297.9,177.2 299.6,177.8 301.3,178.4 303.0,179.1 304.6,179.7 306.3,180.5 308.0,181.2 309.7,182.0 311.3,182.8 313.0,183.7 314.7,184.6 316.4,185.5 318.1,186.5 319.7,187.5 321.4,188.5 323.1,189.6 324.8,190.7 326.4,191.8 328.1,193.0 329.8,194.2 331.5,195.4 333.2,196.7 334.8,198.0 336.5,199.3 338.2,200.6 339.9,202.0 341.5,203.4 343.2,204.8 344.9,206.3 346.6,207.8 348.3,209.3 349.9,210.8 351.6,212.4 353.3,213.9 355.0,215.6 356.6,217.2 358.3,218.8 360.0,220.5 361.7,222.2 363.4,223.9 365.0,225.7 366.7,227.4 368.4,229.2 370.1,231.0 371.7,232.9 373.4,234.7 375.1,236.6 376.8,238.5 378.5,240.4 380.1,242.3 381.8,244.2 383.5,246.2 385.2,248.1 386.8,250.1 388.5,252.1 390.2,254.1 391.9,256.2 393.6,258.2 395.2,260.3 396.9,262.3 398.6,264.4 400.3,266.5 401.9,268.6 403.6,270.7 405.3,272.8 407.0,275.0 408.7,277.1 410.3,279.3 412.0,281.5 413.7,283.6 415.4,285.8 417.0,288.0 418.7,290.2 420.4,292.4 422.1,294.6 423.8,296.8 425.4,299.1 427.1,301.3 428.8,303.5 430.5,305.8 432.1,308.0 433.8,310.2 435.5,312.5 437.2,314.7 438.9,317.0 440.5,319.2 442.2,321.5 443.9,323.7 445.6,326.0 447.2,328.2 448.9,330.5 450.6,332.7 452.3,335.0 454.0,337.2 455.6,339.5 457.3,341.7 459.0,343.9 460.7,346.2 462.3,348.4 464.0,350.6 465.7,352.8 467.4,355.0 469.1,357.3 470.7,359.5 472.4,361.6 474.1,363.8 475.8,366.0 477.4,368.2 479.1,370.3 480.8,372.5 482.5,374.6 484.2,376.7 485.8,378.9 487.5,381.0 489.2,383.1 490.9,385.1 492.5,387.2 494.2,389.3 495.9,391.3 497.6,393.3 499.3,395.3 500.9,397.3 502.6,399.3 504.3,401.3 506.0,403.2 507.6,405.2 509.3,407.1 511.0,409.0 512.7,410.9 514.4,412.7 516.0,414.6 517.7,416.4 519.4,418.2 521.1,420.0 522.7,421.8 524.4,423.5 526.1,425.2 527.8,426.9 529.5,428.6 531.1,430.3 532.8,431.9 534.5,433.5 536.2,435.1 537.8,436.7 539.5,438.2 541.2,439.7 542.9,441.2 544.6,442.6 546.2,444.1 547.9,445.5 549.6,446.8 551.3,448.2 552.9,449.5 554.6,450.8 556.3,452.0 558.0,453.3 559.7,454.4 561.3,455.6 563.0,456.7 564.7,457.8 566.4,458.9 568.0,459.9 569.7,461.0 571.4,461.9 573.1,462.9 574.8,463.8 576.4,464.6 578.1,465.4 579.8,466.2 581.5,467.0 583.1,467.7 584.8,468.4 586.5,469.0 588.2,469.6 589.9,470.2 591.5,470.7 593.2,471.2 594.9,471.7 596.6,472.1 598.2,472.4 599.9,472.8 601.6,473.1 603.3,473.3 605.0,473.5 606.6,473.7 608.3,473.8 610.0,473.8 611.7,473.9"/>
  <line x1="276.1" y1="173.6" x2="276.1" y2="473.9" stroke="#E65100" stroke-width="1.3" stroke-dasharray="5 3"/>
  <line x1="276.1" y1="173.6" x2="108.3" y2="173.6" stroke="#E65100" stroke-width="1.3" stroke-dasharray="5 3"/>
  <circle cx="276.1" cy="173.6" r="6" fill="#E65100"/>
  <text x="284.1" y="167.6" font-size="13" fill="#E65100">最大 (2, 128)</text>
  <line x1="209.0" y1="173.6" x2="343.2" y2="173.6" stroke="#1565C0" stroke-width="2"/>
  <text x="345.2" y="177.6" font-size="10" fill="#1565C0">V&#39;=0</text>
  <circle cx="108.3" cy="473.9" r="3.5" fill="#777"/>
  <circle cx="611.7" cy="473.9" r="3.5" fill="#777"/>
  <text x="609.7" y="465.9" font-size="10" fill="#777">V=0</text>
</svg>
