<?xml version="1.0" encoding="UTF-8"?>
<svg xmlns="http://www.w3.org/2000/svg" viewBox="0 0 660 660" width="660" height="660">
  <rect width="660" height="660" fill="white"/>
  <text x="330.0" y="26" text-anchor="middle" font-size="15" font-family="serif">
    复数相乘 = 模相乘, 幅角相加 (= 旋转 + 伸缩)
  </text>
  <text x="330.0" y="46" text-anchor="middle" font-size="12" fill="#666">
    z&#8321;=2&#8736;30&#176;,  z&#8322;=&#8730;2&#8736;45&#176;  &#8594;  z&#8321;z&#8322;=2&#8730;2&#8736;75&#176;
  </text>
  <line x1="78.0" y1="533.0" x2="582.0" y2="533.0" stroke="#000" stroke-width="1"/>
  <line x1="198.0" y1="605.0" x2="198.0" y2="125.0" stroke="#000" stroke-width="1"/>
  <text x="578.0" y="549.0" font-size="11" font-style="italic">Re</text>
  <text x="204.0" y="131.0" font-size="11" font-style="italic">Im</text>
  <text x="318.0" y="547.0" text-anchor="middle" font-size="9">1</text>
  <text x="438.0" y="547.0" text-anchor="middle" font-size="9">2</text>
  <text x="558.0" y="547.0" text-anchor="middle" font-size="9">3</text>
  <text x="191.0" y="416.0" text-anchor="end" font-size="9">1i</text>
  <text x="191.0" y="296.0" text-anchor="end" font-size="9">2i</text>
  <text x="191.0" y="176.0" text-anchor="end" font-size="9">3i</text>
  <line x1="198.0" y1="533.0" x2="405.8" y2="413.0" stroke="#1565C0" stroke-width="2.3"/>
  <circle cx="405.8" cy="413.0" r="5" fill="#1565C0"/>
  <text x="413.8" y="429.0" font-size="12" fill="#1565C0">z&#8321; (模2, 30&#176;)</text>
  <line x1="198.0" y1="533.0" x2="318.0" y2="413.0" stroke="#2E7D32" stroke-width="2.3"/>
  <circle cx="318.0" cy="413.0" r="5" fill="#2E7D32"/>
  <text x="326.0" y="407.0" font-size="12" fill="#2E7D32">z&#8322; (模&#8730;2, 45&#176;)</text>
  <line x1="198.0" y1="533.0" x2="285.8" y2="205.2" stroke="#9C27B0" stroke-width="2.3"/>
  <circle cx="285.8" cy="205.2" r="5" fill="#9C27B0"/>
  <text x="293.8" y="199.2" font-size="12" fill="#9C27B0">z&#8321;z&#8322; (模2&#8730;2, 75&#176;)</text>
  <path d="M 232.0 533.0 A 34 34 0 0 0 227.4 516.0" fill="none" stroke="#1565C0" stroke-width="1.3"/>
  <path d="M 246.0 533.0 A 48 48 0 0 0 231.9 499.1" fill="none" stroke="#2E7D32" stroke-width="1.3"/>
  <path d="M 260.0 533.0 A 62 62 0 0 0 214.0 473.1" fill="none" stroke="#9C27B0" stroke-width="1.3"/>

  <rect x="410" y="78" width="232" height="86" fill="white" fill-opacity="0.93" stroke="#ccc" rx="4"/>
  <text x="422" y="98" font-size="11">模: 2 &#215; &#8730;2 = 2&#8730;2 &#8776; 2.83</text>
  <text x="422" y="118" font-size="11">幅角: 30&#176; + 45&#176; = 75&#176;</text>
  <text x="422" y="138" font-size="11">乘 z&#8322; = 把 z&#8321; 逆时针转45&#176;</text>
  <text x="422" y="156" font-size="11">再放大 &#8730;2 倍</text>
</svg>
