<?xml version="1.0" encoding="UTF-8"?>
<svg xmlns="http://www.w3.org/2000/svg" viewBox="0 0 700 600" width="700" height="600">
  <rect width="700" height="600" fill="white"/>
  <text x="350.0" y="26" text-anchor="middle" font-size="15" font-family="serif">
    导数的应用: f(x)=x&#179;-3x 的单调性与极值
  </text>
  <text x="350.0" y="46" text-anchor="middle" font-size="12" fill="#666">
    f'(x)=3x&#178;-3=3(x&#178;-1); f'&gt;0 增(绿), f'&lt;0 减(红), f'=0 在 x=&#177;1 取极值
  </text>
  <line x1="238.9" y1="332.0" x2="461.1" y2="332.0" stroke="#999" stroke-width="1"/>
  <line x1="350.0" y1="119.0" x2="350.0" y2="545.0" stroke="#999" stroke-width="1"/>
  <text x="257.4" y="346.0" text-anchor="middle" font-size="9">-2</text>
  <text x="303.7" y="346.0" text-anchor="middle" font-size="9">-1</text>
  <text x="396.3" y="346.0" text-anchor="middle" font-size="9">1</text>
  <text x="442.6" y="346.0" text-anchor="middle" font-size="9">2</text>
  <text x="343.0" y="520.2" text-anchor="end" font-size="9">-4</text>
  <text x="343.0" y="427.6" text-anchor="end" font-size="9">-2</text>
  <text x="343.0" y="242.4" text-anchor="end" font-size="9">2</text>
  <text x="343.0" y="149.8" text-anchor="end" font-size="9">4</text>
  <polyline fill="none" stroke="#2E7D32" stroke-width="2.6" points="238.9,638.7 239.4,631.1 240.0,623.5 240.5,616.0 241.0,608.6 241.6,601.3 242.1,594.1 242.7,586.9 243.2,579.9 243.7,572.9 244.3,566.0 244.8,559.3 245.4,552.6 245.9,545.9 246.4,539.4 247.0,533.0 247.5,526.6 248.1,520.3 248.6,514.1 249.1,508.0 249.7,502.0 250.2,496.1 250.8,490.2 251.3,484.4 251.8,478.7 252.4,473.1 252.9,467.5 253.5,462.1 254.0,456.7 254.5,451.4 255.1,446.1 255.6,441.0 256.2,435.9 256.7,430.9 257.2,426.0 257.8,421.2 258.3,416.4 258.9,411.7 259.4,407.1 259.9,402.5 260.5,398.0 261.0,393.6 261.6,389.3 262.1,385.1 262.6,380.9 263.2,376.8 263.7,372.7 264.3,368.8 264.8,364.9 265.3,361.0 265.9,357.3 266.4,353.6 267.0,349.9 267.5,346.4 268.0,342.9 268.6,339.5 269.1,336.1 269.7,332.8 270.2,329.6 270.7,326.4 271.3,323.3 271.8,320.3 272.4,317.3 272.9,314.4 273.4,311.6 274.0,308.8 274.5,306.1 275.1,303.4 275.6,300.9 276.1,298.3 276.7,295.9 277.2,293.4 277.8,291.1 278.3,288.8 278.8,286.6 279.4,284.4 279.9,282.3 280.5,280.2 281.0,278.2 281.5,276.2 282.1,274.3 282.6,272.5 283.2,270.7 283.7,269.0 284.2,267.3 284.8,265.7 285.3,264.1 285.9,262.6 286.4,261.2 286.9,259.8 287.5,258.4 288.0,257.1 288.6,255.8 289.1,254.6 289.7,253.5 290.2,252.4 290.7,251.3 291.3,250.3 291.8,249.3 292.4,248.4 292.9,247.5 293.4,246.7 294.0,245.9 294.5,245.2 295.1,244.5 295.6,243.9 296.1,243.3 296.7,242.7 297.2,242.2 297.8,241.8 298.3,241.4 298.8,241.0 299.4,240.6 299.9,240.3 300.5,240.1 301.0,239.9 301.5,239.7 302.1,239.6 302.6,239.5 303.2,239.4 303.7,239.4"/>
  <polyline fill="none" stroke="#E53935" stroke-width="2.6" points="303.7,239.4 304.5,239.4 305.2,239.5 306.0,239.7 306.8,240.0 307.6,240.3 308.3,240.7 309.1,241.2 309.9,241.8 310.6,242.4 311.4,243.0 312.2,243.8 313.0,244.6 313.7,245.4 314.5,246.4 315.3,247.3 316.0,248.4 316.8,249.5 317.6,250.6 318.4,251.9 319.1,253.1 319.9,254.4 320.7,255.8 321.4,257.2 322.2,258.7 323.0,260.2 323.8,261.7 324.5,263.3 325.3,264.9 326.1,266.6 326.8,268.3 327.6,270.1 328.4,271.9 329.2,273.7 329.9,275.6 330.7,277.5 331.5,279.4 332.2,281.4 333.0,283.3 333.8,285.4 334.6,287.4 335.3,289.5 336.1,291.6 336.9,293.7 337.7,295.8 338.4,298.0 339.2,300.2 340.0,302.4 340.7,304.6 341.5,306.8 342.3,309.1 343.1,311.3 343.8,313.6 344.6,315.9 345.4,318.2 346.1,320.5 346.9,322.8 347.7,325.1 348.5,327.4 349.2,329.7 350.0,332.0 350.8,334.3 351.5,336.6 352.3,338.9 353.1,341.2 353.9,343.5 354.6,345.8 355.4,348.1 356.2,350.4 356.9,352.7 357.7,354.9 358.5,357.2 359.3,359.4 360.0,361.6 360.8,363.8 361.6,366.0 362.3,368.2 363.1,370.3 363.9,372.4 364.7,374.5 365.4,376.6 366.2,378.6 367.0,380.7 367.8,382.6 368.5,384.6 369.3,386.5 370.1,388.4 370.8,390.3 371.6,392.1 372.4,393.9 373.2,395.7 373.9,397.4 374.7,399.1 375.5,400.7 376.2,402.3 377.0,403.8 377.8,405.3 378.6,406.8 379.3,408.2 380.1,409.6 380.9,410.9 381.6,412.1 382.4,413.4 383.2,414.5 384.0,415.6 384.7,416.7 385.5,417.6 386.3,418.6 387.0,419.4 387.8,420.2 388.6,421.0 389.4,421.6 390.1,422.2 390.9,422.8 391.7,423.3 392.4,423.7 393.2,424.0 394.0,424.3 394.8,424.5 395.5,424.6 396.3,424.6"/>
  <polyline fill="none" stroke="#2E7D32" stroke-width="2.6" points="396.3,424.6 396.8,424.6 397.4,424.5 397.9,424.4 398.5,424.3 399.0,424.1 399.5,423.9 400.1,423.7 400.6,423.4 401.2,423.0 401.7,422.6 402.2,422.2 402.8,421.8 403.3,421.3 403.9,420.7 404.4,420.1 404.9,419.5 405.5,418.8 406.0,418.1 406.6,417.3 407.1,416.5 407.6,415.6 408.2,414.7 408.7,413.7 409.3,412.7 409.8,411.6 410.4,410.5 410.9,409.4 411.4,408.2 412.0,406.9 412.5,405.6 413.1,404.2 413.6,402.8 414.1,401.4 414.7,399.9 415.2,398.3 415.8,396.7 416.3,395.0 416.8,393.3 417.4,391.5 417.9,389.7 418.5,387.8 419.0,385.8 419.5,383.8 420.1,381.7 420.6,379.6 421.2,377.4 421.7,375.2 422.2,372.9 422.8,370.6 423.3,368.1 423.9,365.7 424.4,363.1 424.9,360.6 425.5,357.9 426.0,355.2 426.6,352.4 427.1,349.6 427.6,346.7 428.2,343.7 428.7,340.7 429.3,337.6 429.8,334.4 430.3,331.2 430.9,327.9 431.4,324.5 432.0,321.1 432.5,317.6 433.0,314.1 433.6,310.4 434.1,306.7 434.7,303.0 435.2,299.1 435.7,295.2 436.3,291.3 436.8,287.2 437.4,283.1 437.9,278.9 438.4,274.7 439.0,270.4 439.5,266.0 440.1,261.5 440.6,256.9 441.1,252.3 441.7,247.6 442.2,242.8 442.8,238.0 443.3,233.1 443.8,228.1 444.4,223.0 444.9,217.9 445.5,212.6 446.0,207.3 446.5,201.9 447.1,196.5 447.6,190.9 448.2,185.3 448.7,179.6 449.2,173.8 449.8,167.9 450.3,162.0 450.9,156.0 451.4,149.9 451.9,143.7 452.5,137.4 453.0,131.0 453.6,124.6 454.1,118.1 454.6,111.4 455.2,104.7 455.7,98.0 456.3,91.1 456.8,84.1 457.3,77.1 457.9,69.9 458.4,62.7 459.0,55.4 459.5,48.0 460.1,40.5 460.6,32.9 461.1,25.3"/>
  <line x1="275.9" y1="239.4" x2="331.5" y2="239.4" stroke="#E65100" stroke-width="2" stroke-dasharray="5 3"/>
  <circle cx="303.7" cy="239.4" r="5" fill="#1565C0"/>
  <text x="311.7" y="231.4" font-size="12" fill="#1565C0">极大 (-1, 2)</text>
  <text x="311.7" y="246.4" font-size="10" fill="#E65100">切线斜率=0</text>
  <line x1="368.5" y1="424.6" x2="424.1" y2="424.6" stroke="#E65100" stroke-width="2" stroke-dasharray="5 3"/>
  <circle cx="396.3" cy="424.6" r="5" fill="#1565C0"/>
  <text x="404.3" y="442.6" font-size="12" fill="#1565C0">极小 (1, -2)</text>
  <text x="404.3" y="457.6" font-size="10" fill="#E65100">切线斜率=0</text>

  <rect x="61" y="72" width="152" height="78" fill="white" fill-opacity="0.93" stroke="#ccc" rx="4"/>
  <text x="71" y="92" font-size="11" fill="#2E7D32">x&lt;-1: f'&gt;0 递增</text>
  <text x="71" y="110" font-size="11" fill="#E53935">-1&lt;x&lt;1: f'&lt;0 递减</text>
  <text x="71" y="128" font-size="11" fill="#2E7D32">x&gt;1: f'&gt;0 递增</text>
  <text x="71" y="146" font-size="11" fill="#E65100">x=&#177;1: f'=0 极值</text>
</svg>
