<?xml version="1.0" encoding="UTF-8"?>
<svg xmlns="http://www.w3.org/2000/svg" viewBox="0 0 740 560" width="740" height="560">
  <rect width="740" height="560" fill="white"/>
  <text x="370.0" y="26" text-anchor="middle" font-size="17" font-family="serif">
    抛物线的焦点与准线 (x&#178; = 4y)：到焦点 = 到准线
  </text>
  <g stroke="#ececec" stroke-width="0.5">
    <line x1="60.0" y1="60" x2="60.0" y2="500"/>
    <line x1="122.0" y1="60" x2="122.0" y2="500"/>
    <line x1="184.0" y1="60" x2="184.0" y2="500"/>
    <line x1="246.0" y1="60" x2="246.0" y2="500"/>
    <line x1="308.0" y1="60" x2="308.0" y2="500"/>
    <line x1="370.0" y1="60" x2="370.0" y2="500"/>
    <line x1="432.0" y1="60" x2="432.0" y2="500"/>
    <line x1="494.0" y1="60" x2="494.0" y2="500"/>
    <line x1="556.0" y1="60" x2="556.0" y2="500"/>
    <line x1="618.0" y1="60" x2="618.0" y2="500"/>
    <line x1="680.0" y1="60" x2="680.0" y2="500"/>
    <line x1="60" y1="500.0" x2="680" y2="500.0"/>
    <line x1="60" y1="445.0" x2="680" y2="445.0"/>
    <line x1="60" y1="390.0" x2="680" y2="390.0"/>
    <line x1="60" y1="335.0" x2="680" y2="335.0"/>
    <line x1="60" y1="280.0" x2="680" y2="280.0"/>
    <line x1="60" y1="225.0" x2="680" y2="225.0"/>
    <line x1="60" y1="170.0" x2="680" y2="170.0"/>
    <line x1="60" y1="115.0" x2="680" y2="115.0"/>
    <line x1="60" y1="60.0" x2="680" y2="60.0"/>
  </g>
  <line x1="60" y1="390.0" x2="680" y2="390.0" stroke="black" stroke-width="1"/>
  <line x1="370.0" y1="60" x2="370.0" y2="500" stroke="black" stroke-width="1"/>
  <text x="60.0" y="405.0" text-anchor="middle" font-size="10">-5</text>
  <text x="122.0" y="405.0" text-anchor="middle" font-size="10">-4</text>
  <text x="184.0" y="405.0" text-anchor="middle" font-size="10">-3</text>
  <text x="246.0" y="405.0" text-anchor="middle" font-size="10">-2</text>
  <text x="308.0" y="405.0" text-anchor="middle" font-size="10">-1</text>
  <text x="432.0" y="405.0" text-anchor="middle" font-size="10">1</text>
  <text x="494.0" y="405.0" text-anchor="middle" font-size="10">2</text>
  <text x="556.0" y="405.0" text-anchor="middle" font-size="10">3</text>
  <text x="618.0" y="405.0" text-anchor="middle" font-size="10">4</text>
  <text x="680.0" y="405.0" text-anchor="middle" font-size="10">5</text>
  <line x1="60" y1="445.0" x2="680" y2="445.0" stroke="#E53935" stroke-width="2" stroke-dasharray="6 4"/>
  <text x="550" y="439.0" font-size="12" fill="#E53935">准线 y = -1</text>
  <polyline fill="none" stroke="#9C27B0" stroke-width="2.5" points="60.0,46.2 62.1,50.8 64.1,55.4 66.2,59.9 68.3,64.3 70.3,68.8 72.4,73.2 74.5,77.6 76.5,81.9 78.6,86.3 80.7,90.6 82.7,94.8 84.8,99.1 86.9,103.3 88.9,107.4 91.0,111.6 93.1,115.7 95.1,119.8 97.2,123.8 99.3,127.8 101.3,131.8 103.4,135.8 105.5,139.7 107.5,143.6 109.6,147.4 111.7,151.3 113.7,155.1 115.8,158.9 117.9,162.6 119.9,166.3 122.0,170.0 124.1,173.7 126.1,177.3 128.2,180.9 130.3,184.4 132.3,188.0 134.4,191.5 136.5,194.9 138.5,198.4 140.6,201.8 142.7,205.1 144.7,208.5 146.8,211.8 148.9,215.1 150.9,218.3 153.0,221.6 155.1,224.8 157.1,227.9 159.2,231.1 161.3,234.2 163.3,237.2 165.4,240.3 167.5,243.3 169.5,246.3 171.6,249.2 173.7,252.1 175.7,255.0 177.8,257.9 179.9,260.7 181.9,263.5 184.0,266.2 186.1,269.0 188.1,271.7 190.2,274.4 192.3,277.0 194.3,279.6 196.4,282.2 198.5,284.8 200.5,287.3 202.6,289.8 204.7,292.2 206.7,294.7 208.8,297.0 210.9,299.4 212.9,301.8 215.0,304.1 217.1,306.3 219.1,308.6 221.2,310.8 223.3,313.0 225.3,315.1 227.4,317.3 229.5,319.4 231.5,321.4 233.6,323.4 235.7,325.5 237.7,327.4 239.8,329.4 241.9,331.3 243.9,333.2 246.0,335.0 248.1,336.8 250.1,338.6 252.2,340.4 254.3,342.1 256.3,343.8 258.4,345.5 260.5,347.1 262.5,348.7 264.6,350.3 266.7,351.8 268.7,353.3 270.8,354.8 272.9,356.3 274.9,357.7 277.0,359.1 279.1,360.4 281.1,361.8 283.2,363.1 285.3,364.3 287.3,365.6 289.4,366.8 291.5,367.9 293.5,369.1 295.6,370.2 297.7,371.3 299.7,372.3 301.8,373.4 303.9,374.4 305.9,375.3 308.0,376.2 310.1,377.2 312.1,378.0 314.2,378.9 316.3,379.7 318.3,380.5 320.4,381.2 322.5,381.9 324.5,382.6 326.6,383.3 328.7,383.9 330.7,384.5 332.8,385.1 334.9,385.6 336.9,386.1 339.0,386.6 341.1,387.0 343.1,387.4 345.2,387.8 347.3,388.2 349.3,388.5 351.4,388.8 353.5,389.0 355.5,389.3 357.6,389.4 359.7,389.6 361.7,389.8 363.8,389.9 365.9,389.9 367.9,390.0 370.0,390.0 372.1,390.0 374.1,389.9 376.2,389.9 378.3,389.8 380.3,389.6 382.4,389.4 384.5,389.3 386.5,389.0 388.6,388.8 390.7,388.5 392.7,388.2 394.8,387.8 396.9,387.4 398.9,387.0 401.0,386.6 403.1,386.1 405.1,385.6 407.2,385.1 409.3,384.5 411.3,383.9 413.4,383.3 415.5,382.6 417.5,381.9 419.6,381.2 421.7,380.5 423.7,379.7 425.8,378.9 427.9,378.0 429.9,377.2 432.0,376.2 434.1,375.3 436.1,374.4 438.2,373.4 440.3,372.3 442.3,371.3 444.4,370.2 446.5,369.1 448.5,367.9 450.6,366.8 452.7,365.6 454.7,364.3 456.8,363.1 458.9,361.8 460.9,360.4 463.0,359.1 465.1,357.7 467.1,356.3 469.2,354.8 471.3,353.3 473.3,351.8 475.4,350.3 477.5,348.7 479.5,347.1 481.6,345.5 483.7,343.8 485.7,342.1 487.8,340.4 489.9,338.6 491.9,336.8 494.0,335.0 496.1,333.2 498.1,331.3 500.2,329.4 502.3,327.4 504.3,325.5 506.4,323.4 508.5,321.4 510.5,319.4 512.6,317.3 514.7,315.1 516.7,313.0 518.8,310.8 520.9,308.6 522.9,306.3 525.0,304.1 527.1,301.8 529.1,299.4 531.2,297.1 533.3,294.7 535.3,292.2 537.4,289.8 539.5,287.3 541.5,284.8 543.6,282.2 545.7,279.6 547.7,277.0 549.8,274.4 551.9,271.7 553.9,269.0 556.0,266.2 558.1,263.5 560.1,260.7 562.2,257.9 564.3,255.0 566.3,252.1 568.4,249.2 570.5,246.3 572.5,243.3 574.6,240.3 576.7,237.2 578.7,234.2 580.8,231.0 582.9,227.9 584.9,224.8 587.0,221.6 589.1,218.3 591.1,215.1 593.2,211.8 595.3,208.5 597.3,205.1 599.4,201.8 601.5,198.4 603.5,194.9 605.6,191.4 607.7,188.0 609.7,184.4 611.8,180.9 613.9,177.3 615.9,173.7 618.0,170.0 620.1,166.3 622.1,162.6 624.2,158.9 626.3,155.1 628.3,151.3 630.4,147.5 632.5,143.6 634.5,139.7 636.6,135.8 638.7,131.8 640.7,127.8 642.8,123.8 644.9,119.8 646.9,115.7 649.0,111.6 651.1,107.4 653.1,103.3 655.2,99.1 657.3,94.8 659.3,90.6 661.4,86.3 663.5,81.9 665.5,77.6 667.6,73.2 669.7,68.8 671.7,64.3 673.8,59.9 675.9,55.4 677.9,50.8 680.0,46.2"/>
  <circle cx="370.0" cy="335.0" r="5" fill="#1565C0"/>
  <text x="378.0" y="329.0" font-size="12" fill="#1565C0">焦点 F(0,1)</text>
  <circle cx="556.0" cy="266.2" r="5" fill="#2E7D32"/>
  <text x="564.0" y="260.2" font-size="12" fill="#2E7D32">P(3, 2.25)</text>
  <line x1="556.0" y1="266.2" x2="370.0" y2="335.0" stroke="#1565C0" stroke-width="2"/>
  <line x1="556.0" y1="266.2" x2="556.0" y2="445.0" stroke="#E53935" stroke-width="2"/>

  <rect x="68" y="68" width="250" height="56" fill="white" stroke="#ccc" rx="4"/>
  <text x="80" y="90" font-size="12" fill="#1565C0">PF = 3.25  (P到焦点)</text>
  <text x="80" y="110" font-size="12" fill="#E53935">P到准线 = 3.25  (相等!)</text>
</svg>
