<?xml version="1.0" encoding="UTF-8"?>
<svg xmlns="http://www.w3.org/2000/svg" viewBox="0 0 760 560" width="760" height="560">
  <rect width="760" height="560" fill="white"/>
  <text x="380.0" y="28" text-anchor="middle" font-size="18" font-family="serif">
    直线与抛物线 y = a x&#178; + b x + c 交于两点
  </text>
  <g stroke="#e8e8e8" stroke-width="0.5">
    <line x1="100.0" y1="60" x2="100.0" y2="500"/>
    <line x1="180.0" y1="60" x2="180.0" y2="500"/>
    <line x1="260.0" y1="60" x2="260.0" y2="500"/>
    <line x1="340.0" y1="60" x2="340.0" y2="500"/>
    <line x1="420.0" y1="60" x2="420.0" y2="500"/>
    <line x1="500.0" y1="60" x2="500.0" y2="500"/>
    <line x1="580.0" y1="60" x2="580.0" y2="500"/>
    <line x1="660.0" y1="60" x2="660.0" y2="500"/>
    <line x1="60" y1="500.0" x2="700" y2="500.0"/>
    <line x1="60" y1="460.0" x2="700" y2="460.0"/>
    <line x1="60" y1="420.0" x2="700" y2="420.0"/>
    <line x1="60" y1="380.0" x2="700" y2="380.0"/>
    <line x1="60" y1="340.0" x2="700" y2="340.0"/>
    <line x1="60" y1="300.0" x2="700" y2="300.0"/>
    <line x1="60" y1="260.0" x2="700" y2="260.0"/>
    <line x1="60" y1="220.0" x2="700" y2="220.0"/>
    <line x1="60" y1="180.0" x2="700" y2="180.0"/>
    <line x1="60" y1="140.0" x2="700" y2="140.0"/>
    <line x1="60" y1="100.0" x2="700" y2="100.0"/>
    <line x1="60" y1="60.0" x2="700" y2="60.0"/>
  </g>
  <line x1="60" y1="300.0" x2="700" y2="300.0" stroke="black" stroke-width="1"/>
  <line x1="340.0" y1="60" x2="340.0" y2="500" stroke="black" stroke-width="1"/>
  <text x="708" y="304.0" font-size="13" font-style="italic">x</text>
  <text x="346.0" y="56" font-size="13" font-style="italic">y</text>
  <text x="100.0" y="315.0" text-anchor="middle" font-size="10">-3</text>
  <text x="180.0" y="315.0" text-anchor="middle" font-size="10">-2</text>
  <text x="260.0" y="315.0" text-anchor="middle" font-size="10">-1</text>
  <text x="420.0" y="315.0" text-anchor="middle" font-size="10">1</text>
  <text x="500.0" y="315.0" text-anchor="middle" font-size="10">2</text>
  <text x="580.0" y="315.0" text-anchor="middle" font-size="10">3</text>
  <text x="660.0" y="315.0" text-anchor="middle" font-size="10">4</text>
  <text x="332.0" y="504.0" text-anchor="end" font-size="10">-5</text>
  <text x="332.0" y="464.0" text-anchor="end" font-size="10">-4</text>
  <text x="332.0" y="424.0" text-anchor="end" font-size="10">-3</text>
  <text x="332.0" y="384.0" text-anchor="end" font-size="10">-2</text>
  <text x="332.0" y="344.0" text-anchor="end" font-size="10">-1</text>
  <text x="332.0" y="264.0" text-anchor="end" font-size="10">1</text>
  <text x="332.0" y="224.0" text-anchor="end" font-size="10">2</text>
  <text x="332.0" y="184.0" text-anchor="end" font-size="10">3</text>
  <text x="332.0" y="144.0" text-anchor="end" font-size="10">4</text>
  <text x="332.0" y="104.0" text-anchor="end" font-size="10">5</text>
  <text x="332.0" y="64.0" text-anchor="end" font-size="10">6</text>
  <polyline fill="none" stroke="#9C27B0" stroke-width="2.5" points="156.0,24.4 158.1,31.4 160.3,38.4 162.4,45.3 164.5,52.1 166.7,58.9 168.8,65.6 170.9,72.3 173.1,78.9 175.2,85.5 177.3,92.0 179.5,98.4 181.6,104.8 183.7,111.1 185.9,117.4 188.0,123.6 190.1,129.8 192.3,135.9 194.4,141.9 196.5,147.9 198.7,153.8 200.8,159.7 202.9,165.5 205.1,171.3 207.2,177.0 209.3,182.6 211.5,188.2 213.6,193.7 215.7,199.2 217.9,204.6 220.0,210.0 222.1,215.3 224.3,220.6 226.4,225.7 228.5,230.9 230.7,236.0 232.8,241.0 234.9,245.9 237.1,250.8 239.2,255.7 241.3,260.5 243.5,265.2 245.6,269.9 247.7,274.5 249.9,279.1 252.0,283.6 254.1,288.1 256.3,292.4 258.4,296.8 260.5,301.1 262.7,305.3 264.8,309.5 266.9,313.6 269.1,317.6 271.2,321.6 273.3,325.6 275.5,329.4 277.6,333.3 279.7,337.0 281.9,340.7 284.0,344.4 286.1,348.0 288.3,351.5 290.4,355.0 292.5,358.5 294.7,361.8 296.8,365.1 298.9,368.4 301.1,371.6 303.2,374.7 305.3,377.8 307.5,380.9 309.6,383.8 311.7,386.7 313.9,389.6 316.0,392.4 318.1,395.1 320.3,397.8 322.4,400.5 324.5,403.0 326.7,405.6 328.8,408.0 330.9,410.4 333.1,412.8 335.2,415.1 337.3,417.3 339.5,419.5 341.6,421.6 343.7,423.6 345.9,425.7 348.0,427.6 350.1,429.5 352.3,431.3 354.4,433.1 356.5,434.8 358.7,436.5 360.8,438.1 362.9,439.6 365.1,441.1 367.2,442.6 369.3,444.0 371.5,445.3 373.6,446.5 375.7,447.8 377.9,448.9 380.0,450.0 382.1,451.0 384.3,452.0 386.4,452.9 388.5,453.8 390.7,454.6 392.8,455.4 394.9,456.1 397.1,456.7 399.2,457.3 401.3,457.8 403.5,458.3 405.6,458.7 407.7,459.1 409.9,459.4 412.0,459.6 414.1,459.8 416.3,459.9 418.4,460.0 420.5,460.0 422.7,460.0 424.8,459.9 426.9,459.7 429.1,459.5 431.2,459.2 433.3,458.9 435.5,458.5 437.6,458.1 439.7,457.6 441.9,457.0 444.0,456.4 446.1,455.7 448.3,455.0 450.4,454.2 452.5,453.4 454.7,452.5 456.8,451.5 458.9,450.5 461.1,449.5 463.2,448.3 465.3,447.2 467.5,445.9 469.6,444.6 471.7,443.3 473.9,441.9 476.0,440.4 478.1,438.9 480.3,437.3 482.4,435.7 484.5,434.0 486.7,432.2 488.8,430.4 490.9,428.6 493.1,426.6 495.2,424.7 497.3,422.6 499.5,420.5 501.6,418.4 503.7,416.2 505.9,413.9 508.0,411.6 510.1,409.2 512.3,406.8 514.4,404.3 516.5,401.8 518.7,399.2 520.8,396.5 522.9,393.8 525.1,391.0 527.2,388.2 529.3,385.3 531.5,382.3 533.6,379.3 535.7,376.3 537.9,373.2 540.0,370.0 542.1,366.8 544.3,363.5 546.4,360.1 548.5,356.7 550.7,353.3 552.8,349.8 554.9,346.2 557.1,342.6 559.2,338.9 561.3,335.2 563.5,331.4 565.6,327.5 567.7,323.6 569.9,319.6 572.0,315.6 574.1,311.5 576.3,307.4 578.4,303.2 580.5,298.9 582.7,294.6 584.8,290.3 586.9,285.8 589.1,281.4 591.2,276.8 593.3,272.2 595.5,267.6 597.6,262.9 599.7,258.1 601.9,253.3 604.0,248.4 606.1,243.5 608.3,238.5 610.4,233.4 612.5,228.3 614.7,223.2 616.8,217.9 618.9,212.7 621.1,207.3 623.2,201.9 625.3,196.5 627.5,191.0 629.6,185.4 631.7,179.8 633.9,174.1 636.0,168.4 638.1,162.6 640.3,156.8 642.4,150.9 644.5,144.9 646.7,138.9 648.8,132.8 650.9,126.7 653.1,120.5 655.2,114.3 657.3,108.0 659.5,101.6 661.6,95.2 663.7,88.7 665.9,82.2 668.0,75.6 670.1,69.0 672.3,62.3 674.4,55.5 676.5,48.7 678.7,41.8 680.8,34.9 682.9,27.9 685.1,20.9"/>
  <line x1="60.0" y1="40.0" x2="700.0" y2="360.0" stroke="#2196F3" stroke-width="2.5"/>
  <circle cx="180.0" cy="100.0" r="5" fill="#F44336"/>
  <text x="188.0" y="92.0" font-size="12" fill="#F44336">A (x₁)=(-2,5)</text>
  <line x1="180.0" y1="100.0" x2="180.0" y2="300.0" stroke="#F44336" stroke-width="1" stroke-dasharray="4 3"/>
  <circle cx="580.0" cy="300.0" r="5" fill="#F44336"/>
  <text x="588.0" y="292.0" font-size="12" fill="#F44336">B (x₂)=(3,0)</text>
  <line x1="580.0" y1="300.0" x2="580.0" y2="300.0" stroke="#F44336" stroke-width="1" stroke-dasharray="4 3"/>

  <rect x="70" y="70" width="230" height="56" fill="white" stroke="#ccc" rx="4"/>
  <line x1="82" y1="90" x2="112" y2="90" stroke="#9C27B0" stroke-width="2.5"/>
  <text x="118" y="94" font-size="12">抛物线  y = x&#178; - 2x - 3</text>
  <line x1="82" y1="110" x2="112" y2="110" stroke="#2196F3" stroke-width="2.5"/>
  <text x="118" y="114" font-size="12">直线  y = -1x + 3</text>
</svg>
