<?xml version="1.0" encoding="UTF-8"?>
<svg xmlns="http://www.w3.org/2000/svg" viewBox="0 0 700 560" width="700" height="560">
  <rect width="700" height="560" fill="white"/>
  <text x="350.0" y="26" text-anchor="middle" font-size="15" font-family="serif">
    斜坐标网格: 线性运算照旧, 但长度/夹角公式要变
  </text>
  <text x="350.0" y="46" text-anchor="middle" font-size="12" fill="#666">
    |v|&#178; = a&#178; + b&#178; + 2ab&#183;cos&#969;  (直角系 &#969;=90&#176;, 交叉项消失 -> a&#178;+b&#178;)
  </text>
  <line x1="175.8" y1="441.7" x2="571.7" y2="441.7" stroke="#ddd" stroke-width="1"/>
  <line x1="202.9" y1="367.3" x2="598.7" y2="367.3" stroke="#ddd" stroke-width="1"/>
  <line x1="230.0" y1="292.9" x2="625.8" y2="292.9" stroke="#ddd" stroke-width="1"/>
  <line x1="257.1" y1="218.5" x2="652.9" y2="218.5" stroke="#ddd" stroke-width="1"/>
  <line x1="284.1" y1="144.1" x2="680.0" y2="144.1" stroke="#ddd" stroke-width="1"/>
  <line x1="175.8" y1="441.7" x2="284.1" y2="144.1" stroke="#ddd" stroke-width="1"/>
  <line x1="255.0" y1="441.7" x2="363.3" y2="144.1" stroke="#ddd" stroke-width="1"/>
  <line x1="334.2" y1="441.7" x2="442.5" y2="144.1" stroke="#ddd" stroke-width="1"/>
  <line x1="413.3" y1="441.7" x2="521.6" y2="144.1" stroke="#ddd" stroke-width="1"/>
  <line x1="492.5" y1="441.7" x2="600.8" y2="144.1" stroke="#ddd" stroke-width="1"/>
  <line x1="571.7" y1="441.7" x2="680.0" y2="144.1" stroke="#ddd" stroke-width="1"/>
  <circle cx="175.8" cy="441.7" r="2" fill="#bbb"/>
  <circle cx="202.9" cy="367.3" r="2" fill="#bbb"/>
  <circle cx="230.0" cy="292.9" r="2" fill="#bbb"/>
  <circle cx="257.1" cy="218.5" r="2" fill="#bbb"/>
  <circle cx="284.1" cy="144.1" r="2" fill="#bbb"/>
  <circle cx="255.0" cy="441.7" r="2" fill="#bbb"/>
  <circle cx="282.1" cy="367.3" r="2" fill="#bbb"/>
  <circle cx="309.2" cy="292.9" r="2" fill="#bbb"/>
  <circle cx="336.2" cy="218.5" r="2" fill="#bbb"/>
  <circle cx="363.3" cy="144.1" r="2" fill="#bbb"/>
  <circle cx="334.2" cy="441.7" r="2" fill="#bbb"/>
  <circle cx="361.2" cy="367.3" r="2" fill="#bbb"/>
  <circle cx="388.3" cy="292.9" r="2" fill="#bbb"/>
  <circle cx="415.4" cy="218.5" r="2" fill="#bbb"/>
  <circle cx="442.5" cy="144.1" r="2" fill="#bbb"/>
  <circle cx="413.3" cy="441.7" r="2" fill="#bbb"/>
  <circle cx="440.4" cy="367.3" r="2" fill="#bbb"/>
  <circle cx="467.5" cy="292.9" r="2" fill="#bbb"/>
  <circle cx="494.6" cy="218.5" r="2" fill="#bbb"/>
  <circle cx="521.6" cy="144.1" r="2" fill="#bbb"/>
  <circle cx="492.5" cy="441.7" r="2" fill="#bbb"/>
  <circle cx="519.6" cy="367.3" r="2" fill="#bbb"/>
  <circle cx="546.7" cy="292.9" r="2" fill="#bbb"/>
  <circle cx="573.7" cy="218.5" r="2" fill="#bbb"/>
  <circle cx="600.8" cy="144.1" r="2" fill="#bbb"/>
  <circle cx="571.7" cy="441.7" r="2" fill="#bbb"/>
  <circle cx="598.7" cy="367.3" r="2" fill="#bbb"/>
  <circle cx="625.8" cy="292.9" r="2" fill="#bbb"/>
  <circle cx="652.9" cy="218.5" r="2" fill="#bbb"/>
  <circle cx="680.0" cy="144.1" r="2" fill="#bbb"/>
  <line x1="175.8" y1="441.7" x2="255.0" y2="441.7" stroke="#1565C0" stroke-width="2.6"/>
  <polygon points="255.0,441.7 244.9,446.0 244.9,437.4" fill="#1565C0"/>
  <text x="251.0" y="459.7" font-size="13" fill="#1565C0">e&#8321;</text>
  <line x1="175.8" y1="441.7" x2="202.9" y2="367.3" stroke="#2E7D32" stroke-width="2.6"/>
  <polygon points="202.9,367.3 203.5,378.3 195.4,375.3" fill="#2E7D32"/>
  <text x="184.9" y="365.3" font-size="13" fill="#2E7D32">e&#8322;</text>
  <line x1="175.8" y1="441.7" x2="467.5" y2="292.9" stroke="#9C27B0" stroke-width="2.6"/>
  <polygon points="467.5,292.9 460.4,301.3 456.5,293.7" fill="#9C27B0"/>
  <circle cx="467.5" cy="292.9" r="5" fill="#9C27B0"/>
  <text x="475.5" y="286.9" font-size="13" fill="#7B1FA2">v = 3e&#8321; + 2e&#8322;</text>
  <circle cx="175.8" cy="441.7" r="3.5" fill="#000"/>
  <text x="159.8" y="457.7" font-size="12">O</text>
</svg>
