<?xml version="1.0" encoding="UTF-8"?>
<svg xmlns="http://www.w3.org/2000/svg" viewBox="0 0 720 560" width="720" height="560">
  <rect width="720" height="560" fill="white"/>
  <text x="360.0" y="26" text-anchor="middle" font-size="15" font-family="serif">
    综合例题: |AB|=3, |AC|=2, &#8736;BAC=60&#176;
  </text>
  <text x="360.0" y="46" text-anchor="middle" font-size="12" fill="#666">
    (1)面积比 用坐标[免cos&#969;]   (2)求|EF| 用点积矩阵[带cos&#969;]
  </text>
  <polygon points="148.9,434.6 571.1,434.6 289.6,190.9" fill="#90CAF9" fill-opacity="0.16" stroke="#1565C0" stroke-width="2"/>
  <polygon points="148.9,434.6 360.0,434.6 242.7,272.1" fill="#A5D6A7" fill-opacity="0.6" stroke="#2E7D32" stroke-width="1.6"/>
  <line x1="360.0" y1="434.6" x2="242.7" y2="272.1" stroke="#7B1FA2" stroke-width="2"/>
  <line x1="148.9" y1="434.6" x2="571.1" y2="434.6" stroke="#1565C0" stroke-width="1.6"/>
  <polygon points="571.1,434.6 561.0,438.9 561.0,430.3" fill="#1565C0"/>
  <line x1="148.9" y1="434.6" x2="289.6" y2="190.9" stroke="#2E7D32" stroke-width="1.6"/>
  <polygon points="289.6,190.9 288.3,201.8 280.9,197.5" fill="#2E7D32"/>
  <path d="M 178.9 434.6 A 30 30 0 0 0 163.9 408.6" fill="none" stroke="#E65100" stroke-width="1.4"/>
  <text x="182.9" y="422.6" font-size="11" fill="#E65100">60&#176;</text>
  <circle cx="148.9" cy="434.6" r="4.5" fill="#000"/>
  <text x="136.9" y="452.6" font-size="11.5" fill="#000">A(0,0)</text>
  <circle cx="571.1" cy="434.6" r="4.5" fill="#000"/>
  <text x="575.1" y="452.6" font-size="11.5" fill="#000">B(1,0)</text>
  <circle cx="289.6" cy="190.9" r="4.5" fill="#000"/>
  <text x="283.6" y="182.9" font-size="11.5" fill="#000">C(0,1)</text>
  <circle cx="360.0" cy="434.6" r="4.5" fill="#1565C0"/>
  <text x="354.0" y="454.6" font-size="11.5" fill="#1565C0">E(1/2,0)</text>
  <circle cx="242.7" cy="272.1" r="4.5" fill="#2E7D32"/>
  <text x="250.7" y="268.1" font-size="11.5" fill="#2E7D32">F(0,2/3)</text>

  <rect x="458" y="78" width="244" height="116" fill="white" fill-opacity="0.94" stroke="#ccc" rx="4"/>
  <text x="470" y="98" font-size="11">(1) S&#9651;AEF/S&#9651;ABC = (1/2)(2/3) = 1/3</text>
  <text x="470" y="118" font-size="11">    [只用坐标, 不需 &#969;]</text>
  <text x="470" y="142" font-size="11">(2) EF = -1/2 e&#8321; + 2/3 e&#8322;</text>
  <text x="470" y="160" font-size="11">    |EF|&#178;=73/36 -&gt; |EF|=&#8730;73/6</text>
  <text x="470" y="180" font-size="11" fill="#7B1FA2">    &#8776; 1.424  [用 e&#8321;&#183;e&#8322;=3]</text>
</svg>
