<?xml version="1.0" encoding="UTF-8"?>
<svg xmlns="http://www.w3.org/2000/svg" viewBox="0 0 700 520" width="700" height="520">
  <rect width="700" height="520" fill="white"/>
  <text x="350.0" y="26" text-anchor="middle" font-size="15" font-family="serif">
    斜坐标系 = 沿不垂直基底分解向量 (平面向量基本定理)
  </text>
  <text x="350.0" y="46" text-anchor="middle" font-size="12" fill="#666">
    基底 e&#8321;,e&#8322; 夹角60&#176;;  OP = 3e&#8321; + 2e&#8322;;  投影是"平行于另一轴", 不是垂直
  </text>
  <line x1="131.5" y1="410.4" x2="604.9" y2="410.4" stroke="#888" stroke-width="1.2"/>
  <line x1="131.5" y1="410.4" x2="249.8" y2="205.3" stroke="#888" stroke-width="1.2"/>
  <line x1="495.7" y1="252.7" x2="404.6" y2="410.4" stroke="#1565C0" stroke-width="1.2" stroke-dasharray="5 3"/>
  <line x1="495.7" y1="252.7" x2="222.5" y2="252.7" stroke="#2E7D32" stroke-width="1.2" stroke-dasharray="5 3"/>
  <line x1="131.5" y1="410.4" x2="222.5" y2="410.4" stroke="#1565C0" stroke-width="2.6"/>
  <polygon points="222.5,410.4 212.4,414.7 212.4,406.1" fill="#1565C0"/>
  <text x="222.5" y="428.4" font-size="13" fill="#1565C0">e&#8321;</text>
  <line x1="131.5" y1="410.4" x2="177.0" y2="331.5" stroke="#2E7D32" stroke-width="2.6"/>
  <polygon points="177.0,331.5 175.6,342.4 168.2,338.1" fill="#2E7D32"/>
  <text x="159.0" y="327.5" font-size="13" fill="#2E7D32">e&#8322;</text>
  <circle cx="404.6" cy="410.4" r="4" fill="#1565C0"/>
  <text x="390.6" y="428.4" font-size="12" fill="#1565C0">3e&#8321;</text>
  <circle cx="222.5" cy="252.7" r="4" fill="#2E7D32"/>
  <text x="192.5" y="252.7" font-size="12" fill="#2E7D32">2e&#8322;</text>
  <line x1="131.5" y1="410.4" x2="495.7" y2="252.7" stroke="#9C27B0" stroke-width="2.6"/>
  <polygon points="495.7,252.7 488.1,260.6 484.7,252.8" fill="#9C27B0"/>
  <circle cx="495.7" cy="252.7" r="5" fill="#9C27B0"/>
  <text x="503.7" y="246.7" font-size="13" fill="#7B1FA2">P (斜坐标 3, 2)</text>
  <path d="M 165.5 410.4 A 34 34 0 0 0 148.5 380.9" fill="none" stroke="#E65100" stroke-width="1.4"/>
  <text x="169.5" y="396.4" font-size="11" fill="#E65100">&#969;=60&#176;</text>
  <circle cx="131.5" cy="410.4" r="3.5" fill="#000"/>
  <text x="115.5" y="426.4" font-size="12">O</text>
</svg>
