<?xml version="1.0" encoding="UTF-8"?>
<svg xmlns="http://www.w3.org/2000/svg" viewBox="0 0 720 560" width="720" height="560">
  <rect width="720" height="560" fill="white"/>
  <text x="360.0" y="26" text-anchor="middle" font-size="15" font-family="serif">
    向量 &#8596; 斜坐标: 取 AB=e&#8321;, AD=e&#8322; 为基底
  </text>
  <text x="360.0" y="46" text-anchor="middle" font-size="12" fill="#666">
    平行四边形在它自己的斜坐标系里就是"单位正方形"
  </text>
  <polygon points="139.2,433.1 467.8,433.1 580.8,186.6 252.2,186.6" fill="#90CAF9" fill-opacity="0.18" stroke="#1565C0" stroke-width="1.6"/>
  <line x1="139.2" y1="433.1" x2="467.8" y2="433.1" stroke="#bbb" stroke-width="0.8" stroke-dasharray="4 3"/>
  <line x1="139.2" y1="433.1" x2="252.2" y2="186.6" stroke="#bbb" stroke-width="0.8" stroke-dasharray="4 3"/>
  <line x1="195.7" y1="309.9" x2="524.3" y2="309.9" stroke="#bbb" stroke-width="0.8" stroke-dasharray="4 3"/>
  <line x1="303.5" y1="433.1" x2="416.5" y2="186.6" stroke="#bbb" stroke-width="0.8" stroke-dasharray="4 3"/>
  <line x1="252.2" y1="186.6" x2="580.8" y2="186.6" stroke="#bbb" stroke-width="0.8" stroke-dasharray="4 3"/>
  <line x1="467.8" y1="433.1" x2="580.8" y2="186.6" stroke="#bbb" stroke-width="0.8" stroke-dasharray="4 3"/>
  <line x1="139.2" y1="433.1" x2="467.8" y2="433.1" stroke="#1565C0" stroke-width="2.6"/>
  <polygon points="467.8,433.1 457.7,437.4 457.7,428.8" fill="#1565C0"/>
  <line x1="139.2" y1="433.1" x2="252.2" y2="186.6" stroke="#2E7D32" stroke-width="2.6"/>
  <polygon points="252.2,186.6 251.8,197.6 244.0,194.0" fill="#2E7D32"/>
  <text x="295.5" y="451.1" font-size="12" fill="#1565C0">e&#8321;=AB</text>
  <text x="151.7" y="309.9" font-size="12" fill="#2E7D32">e&#8322;=AD</text>
  <line x1="139.2" y1="433.1" x2="580.8" y2="186.6" stroke="#9C27B0" stroke-width="1.4" stroke-dasharray="6 3"/>
  <line x1="467.8" y1="433.1" x2="252.2" y2="186.6" stroke="#E65100" stroke-width="1.4" stroke-dasharray="6 3"/>
  <circle cx="139.2" cy="433.1" r="4.5" fill="#000"/>
  <text x="129.2" y="449.1" font-size="11.5" fill="#000">A(0,0)</text>
  <circle cx="467.8" cy="433.1" r="4.5" fill="#000"/>
  <text x="473.8" y="449.1" font-size="11.5" fill="#000">B(1,0)</text>
  <circle cx="580.8" cy="186.6" r="4.5" fill="#000"/>
  <text x="588.8" y="180.6" font-size="11.5" fill="#000">C(1,1)</text>
  <circle cx="252.2" cy="186.6" r="4.5" fill="#000"/>
  <text x="200.2" y="182.6" font-size="11.5" fill="#000">D(0,1)</text>
  <circle cx="360.0" cy="309.9" r="4.5" fill="#7B1FA2"/>
  <text x="368.0" y="303.9" font-size="11.5" fill="#7B1FA2">M(1/2,1/2)</text>
  <circle cx="524.3" cy="309.9" r="4.5" fill="#7B1FA2"/>
  <text x="532.3" y="313.9" font-size="11.5" fill="#7B1FA2">N(1,1/2)</text>

  <rect x="464" y="78" width="238" height="74" fill="white" fill-opacity="0.93" stroke="#ccc" rx="4"/>
  <text x="476" y="98" font-size="11">AC 中点 = (1/2, 1/2)</text>
  <text x="476" y="116" font-size="11">BD 中点 = (1/2, 1/2)</text>
  <text x="476" y="136" font-size="11" fill="#7B1FA2">坐标相同 -&gt; 对角线互相平分</text>
</svg>
