<?xml version="1.0" encoding="UTF-8"?>
<svg xmlns="http://www.w3.org/2000/svg" viewBox="0 0 740 580" width="740" height="580">
  <rect width="740" height="580" fill="white"/>
  <text x="370.0" y="26" text-anchor="middle" font-size="16" font-family="serif">
    设点法：P(t, -t&#178;+2t+3)，铅垂高求 &#9651;PBC 最大面积
  </text>
  <g stroke="#ececec" stroke-width="0.5">
    <line x1="60.0" y1="60" x2="60.0" y2="520"/>
    <line x1="163.3" y1="60" x2="163.3" y2="520"/>
    <line x1="266.7" y1="60" x2="266.7" y2="520"/>
    <line x1="370.0" y1="60" x2="370.0" y2="520"/>
    <line x1="473.3" y1="60" x2="473.3" y2="520"/>
    <line x1="576.7" y1="60" x2="576.7" y2="520"/>
    <line x1="680.0" y1="60" x2="680.0" y2="520"/>
    <line x1="60" y1="520.0" x2="680" y2="520.0"/>
    <line x1="60" y1="443.3" x2="680" y2="443.3"/>
    <line x1="60" y1="366.7" x2="680" y2="366.7"/>
    <line x1="60" y1="290.0" x2="680" y2="290.0"/>
    <line x1="60" y1="213.3" x2="680" y2="213.3"/>
    <line x1="60" y1="136.7" x2="680" y2="136.7"/>
    <line x1="60" y1="60.0" x2="680" y2="60.0"/>
  </g>
  <line x1="60" y1="443.3" x2="680" y2="443.3" stroke="black" stroke-width="1"/>
  <line x1="266.7" y1="60" x2="266.7" y2="520" stroke="black" stroke-width="1"/>
  <text x="60.0" y="458.3" text-anchor="middle" font-size="10">-2</text>
  <text x="163.3" y="458.3" text-anchor="middle" font-size="10">-1</text>
  <text x="370.0" y="458.3" text-anchor="middle" font-size="10">1</text>
  <text x="473.3" y="458.3" text-anchor="middle" font-size="10">2</text>
  <text x="576.7" y="458.3" text-anchor="middle" font-size="10">3</text>
  <text x="680.0" y="458.3" text-anchor="middle" font-size="10">4</text>
  <polyline fill="none" stroke="#9C27B0" stroke-width="2.5" points="117.9,593.1 119.9,585.7 122.0,578.3 124.1,570.9 126.1,563.7 128.2,556.5 130.3,549.3 132.3,542.2 134.4,535.2 136.5,528.2 138.5,521.3 140.6,514.5 142.7,507.7 144.7,501.0 146.8,494.4 148.9,487.8 150.9,481.2 153.0,474.8 155.1,468.4 157.1,462.0 159.2,455.7 161.3,449.5 163.3,443.3 165.4,437.2 167.5,431.2 169.5,425.2 171.6,419.3 173.7,413.4 175.7,407.6 177.8,401.9 179.9,396.2 181.9,390.6 184.0,385.1 186.1,379.6 188.1,374.1 190.2,368.8 192.3,363.5 194.3,358.2 196.4,353.1 198.5,347.9 200.5,342.9 202.6,337.9 204.7,332.9 206.7,328.1 208.8,323.2 210.9,318.5 212.9,313.8 215.0,309.2 217.1,304.6 219.1,300.1 221.2,295.6 223.3,291.3 225.3,286.9 227.4,282.7 229.5,278.5 231.5,274.3 233.6,270.3 235.7,266.2 237.7,262.3 239.8,258.4 241.9,254.5 243.9,250.8 246.0,247.1 248.1,243.4 250.1,239.8 252.2,236.3 254.3,232.8 256.3,229.4 258.4,226.1 260.5,222.8 262.5,219.6 264.6,216.4 266.7,213.3 268.7,210.3 270.8,207.3 272.9,204.4 274.9,201.6 277.0,198.8 279.1,196.0 281.1,193.4 283.2,190.8 285.3,188.2 287.3,185.7 289.4,183.3 291.5,180.9 293.5,178.6 295.6,176.4 297.7,174.2 299.7,172.1 301.8,170.1 303.9,168.1 305.9,166.1 308.0,164.3 310.1,162.5 312.1,160.7 314.2,159.0 316.3,157.4 318.3,155.8 320.4,154.3 322.5,152.9 324.5,151.5 326.6,150.2 328.7,148.9 330.7,147.7 332.8,146.6 334.9,145.5 336.9,144.5 339.0,143.6 341.1,142.7 343.1,141.8 345.2,141.1 347.3,140.4 349.3,139.7 351.4,139.2 353.5,138.6 355.5,138.2 357.6,137.8 359.7,137.4 361.7,137.2 363.8,136.9 365.9,136.8 367.9,136.7 370.0,136.7 372.1,136.7 374.1,136.8 376.2,136.9 378.3,137.2 380.3,137.4 382.4,137.8 384.5,138.2 386.5,138.6 388.6,139.2 390.7,139.7 392.7,140.4 394.8,141.1 396.9,141.8 398.9,142.7 401.0,143.6 403.1,144.5 405.1,145.5 407.2,146.6 409.3,147.7 411.3,148.9 413.4,150.2 415.5,151.5 417.5,152.9 419.6,154.3 421.7,155.8 423.7,157.4 425.8,159.0 427.9,160.7 429.9,162.5 432.0,164.3 434.1,166.1 436.1,168.1 438.2,170.1 440.3,172.1 442.3,174.2 444.4,176.4 446.5,178.6 448.5,180.9 450.6,183.3 452.7,185.7 454.7,188.2 456.8,190.8 458.9,193.4 460.9,196.0 463.0,198.8 465.1,201.6 467.1,204.4 469.2,207.3 471.3,210.3 473.3,213.3 475.4,216.4 477.5,219.6 479.5,222.8 481.6,226.1 483.7,229.4 485.7,232.8 487.8,236.3 489.9,239.8 491.9,243.4 494.0,247.1 496.1,250.8 498.1,254.5 500.2,258.4 502.3,262.3 504.3,266.2 506.4,270.3 508.5,274.3 510.5,278.5 512.6,282.7 514.7,286.9 516.7,291.3 518.8,295.6 520.9,300.1 522.9,304.6 525.0,309.2 527.1,313.8 529.1,318.5 531.2,323.2 533.3,328.1 535.3,332.9 537.4,337.9 539.5,342.9 541.5,347.9 543.6,353.1 545.7,358.2 547.7,363.5 549.8,368.8 551.9,374.1 553.9,379.6 556.0,385.1 558.1,390.6 560.1,396.2 562.2,401.9 564.3,407.6 566.3,413.4 568.4,419.3 570.5,425.2 572.5,431.2 574.6,437.2 576.7,443.3 578.7,449.5 580.8,455.7 582.9,462.0 584.9,468.4 587.0,474.8 589.1,481.2 591.1,487.8 593.2,494.4 595.3,501.0 597.3,507.7 599.4,514.5 601.5,521.3 603.5,528.2 605.6,535.2 607.7,542.2 609.7,549.3 611.8,556.5 613.9,563.7 615.9,570.9 618.0,578.3 620.1,585.7 622.1,593.1"/>
  <polygon points="421.7,155.8 576.7,443.3 266.7,213.3" fill="#2196F3" fill-opacity="0.18" stroke="#2196F3" stroke-width="1.5"/>
  <line x1="215.0" y1="175.0" x2="628.3" y2="481.7" stroke="#2196F3" stroke-width="2"/>
  <line x1="421.7" y1="155.8" x2="421.7" y2="328.3" stroke="#FF9800" stroke-width="2.5" stroke-dasharray="5 3"/>
  <text x="427.7" y="242.1" font-size="11" fill="#E65100">铅垂高 h=-t&#178;+3t</text>
  <circle cx="163.3" cy="443.3" r="4.5" fill="#555"/>
  <text x="127.3" y="435.3" font-size="11" fill="#555">A(-1,0)</text>
  <circle cx="576.7" cy="443.3" r="4.5" fill="#555"/>
  <text x="582.7" y="459.3" font-size="11" fill="#555">B(3,0)</text>
  <circle cx="266.7" cy="213.3" r="4.5" fill="#555"/>
  <text x="212.7" y="213.3" font-size="11" fill="#555">C(0,3)</text>
  <circle cx="421.7" cy="155.8" r="4.5" fill="#2E7D32"/>
  <text x="429.7" y="149.8" font-size="11" fill="#2E7D32">P(1.5, 3.75)</text>

  <rect x="68" y="68" width="252" height="74" fill="white" stroke="#ccc" rx="4"/>
  <text x="78" y="88" font-size="11">设 P(t, -t&#178;+2t+3)，BC: y=-x+3</text>
  <text x="78" y="107" font-size="11">铅垂高 h = (-t&#178;+2t+3)-(-t+3) = -t&#178;+3t</text>
  <text x="78" y="126" font-size="11">面积 = (1/2)&#183;3&#183;h，t=1.5 时最大 = 27/8</text>
</svg>
