<?xml version="1.0" encoding="UTF-8"?>
<svg xmlns="http://www.w3.org/2000/svg" viewBox="0 0 680 700" width="680" height="700">
  <rect width="680" height="700" fill="white"/>
  <text x="340.0" y="26" text-anchor="middle" font-size="16" font-family="serif">
    完整压轴题：对称轴上 Q(1,m) 使 &#9651;QBC 为等腰，共 5 个点
  </text>
  <text x="340.0" y="46" text-anchor="middle" font-size="12" fill="#666">
    BC=3&#8730;2；红圈=以B为心半径BC，绿圈=以C为心半径BC，蓝虚线=BC中垂线 y=x
  </text>
  <g stroke="#eee" stroke-width="0.5">
    <line x1="50.0" y1="110.0" x2="50.0" y2="640.0"/>
    <line x1="94.6" y1="110.0" x2="94.6" y2="640.0"/>
    <line x1="139.2" y1="110.0" x2="139.2" y2="640.0"/>
    <line x1="183.8" y1="110.0" x2="183.8" y2="640.0"/>
    <line x1="228.5" y1="110.0" x2="228.5" y2="640.0"/>
    <line x1="273.1" y1="110.0" x2="273.1" y2="640.0"/>
    <line x1="317.7" y1="110.0" x2="317.7" y2="640.0"/>
    <line x1="362.3" y1="110.0" x2="362.3" y2="640.0"/>
    <line x1="406.9" y1="110.0" x2="406.9" y2="640.0"/>
    <line x1="451.5" y1="110.0" x2="451.5" y2="640.0"/>
    <line x1="496.2" y1="110.0" x2="496.2" y2="640.0"/>
    <line x1="540.8" y1="110.0" x2="540.8" y2="640.0"/>
    <line x1="585.4" y1="110.0" x2="585.4" y2="640.0"/>
    <line x1="630.0" y1="110.0" x2="630.0" y2="640.0"/>
    <line x1="50.0" y1="640.0" x2="630.0" y2="640.0"/>
    <line x1="50.0" y1="599.2" x2="630.0" y2="599.2"/>
    <line x1="50.0" y1="558.5" x2="630.0" y2="558.5"/>
    <line x1="50.0" y1="517.7" x2="630.0" y2="517.7"/>
    <line x1="50.0" y1="476.9" x2="630.0" y2="476.9"/>
    <line x1="50.0" y1="436.2" x2="630.0" y2="436.2"/>
    <line x1="50.0" y1="395.4" x2="630.0" y2="395.4"/>
    <line x1="50.0" y1="354.6" x2="630.0" y2="354.6"/>
    <line x1="50.0" y1="313.8" x2="630.0" y2="313.8"/>
    <line x1="50.0" y1="273.1" x2="630.0" y2="273.1"/>
    <line x1="50.0" y1="232.3" x2="630.0" y2="232.3"/>
    <line x1="50.0" y1="191.5" x2="630.0" y2="191.5"/>
    <line x1="50.0" y1="150.8" x2="630.0" y2="150.8"/>
    <line x1="50.0" y1="110.0" x2="630.0" y2="110.0"/>
  </g>
  <line x1="50.0" y1="436.2" x2="630.0" y2="436.2" stroke="black" stroke-width="1"/>
  <line x1="273.1" y1="110.0" x2="273.1" y2="640.0" stroke="black" stroke-width="1"/>
  <text x="94.6" y="449.2" text-anchor="middle" font-size="9">-4</text>
  <text x="139.2" y="449.2" text-anchor="middle" font-size="9">-3</text>
  <text x="183.8" y="449.2" text-anchor="middle" font-size="9">-2</text>
  <text x="228.5" y="449.2" text-anchor="middle" font-size="9">-1</text>
  <text x="317.7" y="449.2" text-anchor="middle" font-size="9">1</text>
  <text x="362.3" y="449.2" text-anchor="middle" font-size="9">2</text>
  <text x="406.9" y="449.2" text-anchor="middle" font-size="9">3</text>
  <text x="451.5" y="449.2" text-anchor="middle" font-size="9">4</text>
  <text x="496.2" y="449.2" text-anchor="middle" font-size="9">5</text>
  <text x="540.8" y="449.2" text-anchor="middle" font-size="9">6</text>
  <text x="585.4" y="449.2" text-anchor="middle" font-size="9">7</text>
  <text x="630.0" y="449.2" text-anchor="middle" font-size="9">8</text>
  <text x="266.1" y="602.2" text-anchor="end" font-size="9">-4</text>
  <text x="266.1" y="561.5" text-anchor="end" font-size="9">-3</text>
  <text x="266.1" y="520.7" text-anchor="end" font-size="9">-2</text>
  <text x="266.1" y="479.9" text-anchor="end" font-size="9">-1</text>
  <text x="266.1" y="398.4" text-anchor="end" font-size="9">1</text>
  <text x="266.1" y="357.6" text-anchor="end" font-size="9">2</text>
  <text x="266.1" y="316.8" text-anchor="end" font-size="9">3</text>
  <text x="266.1" y="276.1" text-anchor="end" font-size="9">4</text>
  <text x="266.1" y="235.3" text-anchor="end" font-size="9">5</text>
  <text x="266.1" y="194.5" text-anchor="end" font-size="9">6</text>
  <text x="266.1" y="153.8" text-anchor="end" font-size="9">7</text>
  <text x="266.1" y="113.0" text-anchor="end" font-size="9">8</text>
  <line x1="317.7" y1="110.0" x2="317.7" y2="640.0" stroke="#FF9800" stroke-width="1.5" stroke-dasharray="5 4"/>
  <text x="321.7" y="124.0" font-size="10" fill="#FF9800">x=1</text>
  <polyline fill="none" stroke="#9C27B0" stroke-width="2.5" points="170.3,717.7 171.8,709.0 173.2,700.4 174.7,691.9 176.2,683.4 177.6,675.0 179.1,666.8 180.5,658.6 182.0,650.5 183.4,642.5 184.8,634.5 186.3,626.7 187.8,618.9 189.2,611.2 190.7,603.6 192.1,596.1 193.6,588.7 195.0,581.4 196.4,574.1 197.9,567.0 199.3,559.9 200.8,552.9 202.2,546.0 203.7,539.2 205.2,532.5 206.6,525.9 208.1,519.3 209.5,512.8 210.9,506.4 212.4,500.1 213.8,493.9 215.3,487.8 216.8,481.8 218.2,475.8 219.7,470.0 221.1,464.2 222.5,458.5 224.0,452.9 225.4,447.3 226.9,441.9 228.3,436.6 229.8,431.3 231.2,426.1 232.7,421.0 234.2,416.0 235.6,411.1 237.1,406.3 238.5,401.5 240.0,396.9 241.4,392.3 242.8,387.8 244.3,383.4 245.8,379.1 247.2,374.9 248.6,370.7 250.1,366.7 251.6,362.7 253.0,358.8 254.4,355.0 255.9,351.3 257.4,347.7 258.8,344.1 260.2,340.7 261.7,337.3 263.1,334.0 264.6,330.8 266.1,327.7 267.5,324.7 268.9,321.7 270.4,318.9 271.9,316.1 273.3,313.4 274.8,310.8 276.2,308.3 277.6,305.9 279.1,303.6 280.6,301.3 282.0,299.2 283.4,297.1 284.9,295.1 286.4,293.2 287.8,291.4 289.2,289.6 290.7,288.0 292.2,286.4 293.6,285.0 295.0,283.6 296.5,282.3 297.9,281.1 299.4,279.9 300.9,278.9 302.3,277.9 303.8,277.1 305.2,276.3 306.6,275.6 308.1,275.0 309.6,274.4 311.0,274.0 312.4,273.6 313.9,273.4 315.3,273.2 316.8,273.1 318.2,273.1 319.7,273.2 321.1,273.3 322.6,273.6 324.1,273.9 325.5,274.3 326.9,274.8 328.4,275.4 329.8,276.1 331.3,276.9 332.8,277.7 334.2,278.7 335.6,279.7 337.1,280.8 338.6,282.0 340.0,283.3 341.4,284.6 342.9,286.1 344.4,287.6 345.8,289.3 347.2,291.0 348.7,292.8 350.1,294.7 351.6,296.6 353.1,298.7 354.5,300.8 355.9,303.1 357.4,305.4 358.8,307.8 360.3,310.3 361.8,312.8 363.2,315.5 364.6,318.2 366.1,321.1 367.6,324.0 369.0,327.0 370.4,330.1 371.9,333.3 373.4,336.5 374.8,339.9 376.2,343.3 377.7,346.8 379.1,350.4 380.6,354.1 382.1,357.9 383.5,361.8 384.9,365.7 386.4,369.8 387.9,373.9 389.3,378.1 390.8,382.4 392.2,386.8 393.7,391.2 395.1,395.8 396.6,400.4 398.0,405.2 399.4,410.0 400.9,414.9 402.4,419.9 403.8,424.9 405.2,430.1 406.7,435.3 408.1,440.7 409.6,446.1 411.0,451.6 412.5,457.2 414.0,462.8 415.4,468.6 416.9,474.5 418.3,480.4 419.8,486.4 421.2,492.5 422.6,498.7 424.1,505.0 425.6,511.3 427.0,517.8 428.4,524.3 429.9,531.0 431.3,537.7 432.8,544.5 434.3,551.3 435.7,558.3 437.1,565.4 438.6,572.5 440.1,579.7 441.5,587.0 442.9,594.4 444.4,601.9 445.9,609.5 447.3,617.1 448.8,624.9 450.2,632.7 451.6,640.6 453.1,648.6 454.6,656.7 456.0,664.9 457.4,673.1 458.9,681.5 460.4,689.9 461.8,698.4 463.2,707.0 464.7,715.7"/>
  <polyline fill="none" stroke="#C62828" stroke-width="1.2" stroke-dasharray="3 3" points="596.2,436.2 596.2,433.1 596.1,430.1 596.0,427.1 595.7,424.1 595.5,421.1 595.2,418.1 594.8,415.1 594.4,412.1 593.9,409.1 593.3,406.1 592.7,403.1 592.1,400.2 591.4,397.2 590.6,394.3 589.8,391.4 588.9,388.5 587.9,385.6 586.9,382.7 585.9,379.8 584.8,377.0 583.6,374.2 582.4,371.4 581.2,368.6 579.8,365.8 578.5,363.1 577.1,360.3 575.6,357.6 574.1,354.9 572.5,352.3 570.9,349.7 569.2,347.1 567.4,344.5 565.7,341.9 563.8,339.4 562.0,336.9 560.1,334.5 558.1,332.1 556.1,329.7 554.0,327.3 551.9,325.0 549.8,322.7 547.6,320.4 545.4,318.2 543.1,316.0 540.8,313.8 538.4,311.7 536.0,309.7 533.6,307.6 531.1,305.6 528.6,303.7 526.0,301.7 523.5,299.9 520.8,298.0 518.2,296.2 515.5,294.5 512.8,292.8 510.0,291.1 507.2,289.5 504.4,287.9 501.6,286.4 498.7,284.9 495.8,283.4 492.9,282.0 489.9,280.7 486.9,279.4 483.9,278.1 480.9,276.9 477.8,275.8 474.8,274.7 471.7,273.6 468.5,272.6 465.4,271.7 462.3,270.7 459.1,269.9 455.9,269.1 452.7,268.3 449.5,267.6 446.3,267.0 443.0,266.4 439.8,265.8 436.5,265.3 433.3,264.9 430.0,264.5 426.7,264.1 423.4,263.8 420.1,263.6 416.8,263.4 413.5,263.3 410.2,263.2 406.9,263.2 403.6,263.2 400.3,263.3 397.0,263.4 393.7,263.6 390.4,263.8 387.1,264.1 383.9,264.5 380.6,264.9 377.3,265.3 374.1,265.8 370.8,266.4 367.6,267.0 364.3,267.6 361.1,268.3 357.9,269.1 354.7,269.9 351.6,270.7 348.4,271.7 345.3,272.6 342.2,273.6 339.1,274.7 336.0,275.8 333.0,276.9 329.9,278.1 326.9,279.4 323.9,280.7 321.0,282.0 318.1,283.4 315.2,284.9 312.3,286.4 309.4,287.9 306.6,289.5 303.8,291.1 301.1,292.8 298.4,294.5 295.7,296.2 293.0,298.0 290.4,299.9 287.8,301.7 285.3,303.7 282.7,305.6 280.3,307.6 277.8,309.7 275.4,311.7 273.1,313.8 270.8,316.0 268.5,318.2 266.3,320.4 264.1,322.7 261.9,325.0 259.8,327.3 257.8,329.7 255.8,332.1 253.8,334.5 251.9,336.9 250.0,339.4 248.2,341.9 246.4,344.5 244.7,347.1 243.0,349.7 241.4,352.3 239.8,354.9 238.3,357.6 236.8,360.3 235.4,363.1 234.0,365.8 232.7,368.6 231.4,371.4 230.2,374.2 229.1,377.0 227.9,379.8 226.9,382.7 225.9,385.6 225.0,388.5 224.1,391.4 223.3,394.3 222.5,397.2 221.8,400.2 221.1,403.1 220.5,406.1 220.0,409.1 219.5,412.1 219.0,415.1 218.7,418.1 218.4,421.1 218.1,424.1 217.9,427.1 217.8,430.1 217.7,433.1 217.6,436.2 217.7,439.2 217.8,442.2 217.9,445.2 218.1,448.2 218.4,451.2 218.7,454.2 219.0,457.2 219.5,460.2 220.0,463.2 220.5,466.2 221.1,469.2 221.8,472.1 222.5,475.1 223.3,478.0 224.1,480.9 225.0,483.8 225.9,486.7 226.9,489.6 227.9,492.5 229.1,495.3 230.2,498.1 231.4,500.9 232.7,503.7 234.0,506.5 235.4,509.3 236.8,512.0 238.3,514.7 239.8,517.4 241.4,520.0 243.0,522.6 244.7,525.2 246.4,527.8 248.2,530.4 250.0,532.9 251.9,535.4 253.8,537.8 255.8,540.2 257.8,542.6 259.8,545.0 261.9,547.3 264.1,549.6 266.3,551.9 268.5,554.1 270.8,556.3 273.1,558.5 275.4,560.6 277.8,562.7 280.3,564.7 282.7,566.7 285.3,568.7 287.8,570.6 290.4,572.5 293.0,574.3 295.7,576.1 298.4,577.8 301.1,579.6 303.8,581.2 306.6,582.8 309.4,584.4 312.3,585.9 315.2,587.4 318.1,588.9 321.0,590.3 323.9,591.6 326.9,592.9 329.9,594.2 333.0,595.4 336.0,596.5 339.1,597.6 342.2,598.7 345.3,599.7 348.4,600.7 351.6,601.6 354.7,602.4 357.9,603.2 361.1,604.0 364.3,604.7 367.6,605.3 370.8,605.9 374.1,606.5 377.3,607.0 380.6,607.4 383.9,607.8 387.1,608.2 390.4,608.5 393.7,608.7 397.0,608.9 400.3,609.0 403.6,609.1 406.9,609.1 410.2,609.1 413.5,609.0 416.8,608.9 420.1,608.7 423.4,608.5 426.7,608.2 430.0,607.8 433.3,607.4 436.5,607.0 439.8,606.5 443.0,605.9 446.3,605.3 449.5,604.7 452.7,604.0 455.9,603.2 459.1,602.4 462.3,601.6 465.4,600.7 468.5,599.7 471.7,598.7 474.8,597.6 477.8,596.5 480.9,595.4 483.9,594.2 486.9,592.9 489.9,591.6 492.9,590.3 495.8,588.9 498.7,587.4 501.6,585.9 504.4,584.4 507.2,582.8 510.0,581.2 512.8,579.6 515.5,577.8 518.2,576.1 520.8,574.3 523.5,572.5 526.0,570.6 528.6,568.7 531.1,566.7 533.6,564.7 536.0,562.7 538.4,560.6 540.8,558.5 543.1,556.3 545.4,554.1 547.6,551.9 549.8,549.6 551.9,547.3 554.0,545.0 556.1,542.6 558.1,540.2 560.1,537.8 562.0,535.4 563.8,532.9 565.7,530.4 567.4,527.8 569.2,525.2 570.9,522.6 572.5,520.0 574.1,517.4 575.6,514.7 577.1,512.0 578.5,509.3 579.8,506.5 581.2,503.7 582.4,500.9 583.6,498.1 584.8,495.3 585.9,492.5 586.9,489.6 587.9,486.7 588.9,483.8 589.8,480.9 590.6,478.0 591.4,475.1 592.1,472.1 592.7,469.2 593.3,466.2 593.9,463.2 594.4,460.2 594.8,457.2 595.2,454.2 595.5,451.2 595.7,448.2 596.0,445.2 596.1,442.2 596.2,439.2 596.2,436.2"/>
  <polyline fill="none" stroke="#2E7D32" stroke-width="1.2" stroke-dasharray="3 3" points="462.4,313.8 462.3,310.8 462.2,307.8 462.1,304.8 461.9,301.8 461.6,298.8 461.3,295.8 461.0,292.8 460.5,289.8 460.0,286.8 459.5,283.8 458.9,280.8 458.2,277.9 457.5,274.9 456.7,272.0 455.9,269.1 455.0,266.2 454.1,263.3 453.1,260.4 452.1,257.5 450.9,254.7 449.8,251.9 448.6,249.1 447.3,246.3 446.0,243.5 444.6,240.7 443.2,238.0 441.7,235.3 440.2,232.6 438.6,230.0 437.0,227.4 435.3,224.8 433.6,222.2 431.8,219.6 430.0,217.1 428.1,214.6 426.2,212.2 424.2,209.8 422.2,207.4 420.2,205.0 418.1,202.7 415.9,200.4 413.7,198.1 411.5,195.9 409.2,193.7 406.9,191.5 404.6,189.4 402.2,187.3 399.7,185.3 397.3,183.3 394.7,181.3 392.2,179.4 389.6,177.5 387.0,175.7 384.3,173.9 381.6,172.2 378.9,170.4 376.2,168.8 373.4,167.2 370.6,165.6 367.7,164.1 364.8,162.6 361.9,161.1 359.0,159.7 356.1,158.4 353.1,157.1 350.1,155.8 347.0,154.6 344.0,153.5 340.9,152.4 337.8,151.3 334.7,150.3 331.6,149.3 328.4,148.4 325.3,147.6 322.1,146.8 318.9,146.0 315.7,145.3 312.4,144.7 309.2,144.1 305.9,143.5 302.7,143.0 299.4,142.6 296.1,142.2 292.9,141.8 289.6,141.5 286.3,141.3 283.0,141.1 279.7,141.0 276.4,140.9 273.1,140.9 269.8,140.9 266.5,141.0 263.2,141.1 259.9,141.3 256.6,141.5 253.3,141.8 250.0,142.2 246.7,142.6 243.5,143.0 240.2,143.5 237.0,144.1 233.7,144.7 230.5,145.3 227.3,146.0 224.1,146.8 220.9,147.6 217.7,148.4 214.6,149.3 211.5,150.3 208.3,151.3 205.2,152.4 202.2,153.5 199.1,154.6 196.1,155.8 193.1,157.1 190.1,158.4 187.1,159.7 184.2,161.1 181.3,162.6 178.4,164.1 175.6,165.6 172.8,167.2 170.0,168.8 167.2,170.4 164.5,172.2 161.8,173.9 159.2,175.7 156.5,177.5 154.0,179.4 151.4,181.3 148.9,183.3 146.4,185.3 144.0,187.3 141.6,189.4 139.2,191.5 136.9,193.7 134.6,195.9 132.4,198.1 130.2,200.4 128.1,202.7 126.0,205.0 123.9,207.4 121.9,209.8 119.9,212.2 118.0,214.6 116.2,217.1 114.3,219.6 112.6,222.2 110.8,224.8 109.1,227.4 107.5,230.0 105.9,232.6 104.4,235.3 102.9,238.0 101.5,240.7 100.2,243.5 98.8,246.3 97.6,249.1 96.4,251.9 95.2,254.7 94.1,257.5 93.1,260.4 92.1,263.3 91.1,266.2 90.2,269.1 89.4,272.0 88.6,274.9 87.9,277.9 87.3,280.8 86.7,283.8 86.1,286.8 85.6,289.8 85.2,292.8 84.8,295.8 84.5,298.8 84.3,301.8 84.0,304.8 83.9,307.8 83.8,310.8 83.8,313.8 83.8,316.9 83.9,319.9 84.0,322.9 84.3,325.9 84.5,328.9 84.8,331.9 85.2,334.9 85.6,337.9 86.1,340.9 86.7,343.9 87.3,346.9 87.9,349.8 88.6,352.8 89.4,355.7 90.2,358.6 91.1,361.5 92.1,364.4 93.1,367.3 94.1,370.2 95.2,373.0 96.4,375.8 97.6,378.6 98.8,381.4 100.2,384.2 101.5,386.9 102.9,389.7 104.4,392.4 105.9,395.1 107.5,397.7 109.1,400.3 110.8,402.9 112.6,405.5 114.3,408.1 116.2,410.6 118.0,413.1 119.9,415.5 121.9,417.9 123.9,420.3 126.0,422.7 128.1,425.0 130.2,427.3 132.4,429.6 134.6,431.8 136.9,434.0 139.2,436.2 141.6,438.3 144.0,440.3 146.4,442.4 148.9,444.4 151.4,446.3 154.0,448.3 156.5,450.1 159.2,452.0 161.8,453.8 164.5,455.5 167.2,457.2 170.0,458.9 172.8,460.5 175.6,462.1 178.4,463.6 181.3,465.1 184.2,466.6 187.1,468.0 190.1,469.3 193.1,470.6 196.1,471.9 199.1,473.1 202.2,474.2 205.2,475.3 208.3,476.4 211.5,477.4 214.6,478.3 217.7,479.3 220.9,480.1 224.1,480.9 227.3,481.7 230.5,482.4 233.7,483.0 237.0,483.6 240.2,484.2 243.5,484.7 246.7,485.1 250.0,485.5 253.3,485.9 256.6,486.2 259.9,486.4 263.2,486.6 266.5,486.7 269.8,486.8 273.1,486.8 276.4,486.8 279.7,486.7 283.0,486.6 286.3,486.4 289.6,486.2 292.9,485.9 296.1,485.5 299.4,485.1 302.7,484.7 305.9,484.2 309.2,483.6 312.4,483.0 315.7,482.4 318.9,481.7 322.1,480.9 325.3,480.1 328.4,479.3 331.6,478.3 334.7,477.4 337.8,476.4 340.9,475.3 344.0,474.2 347.0,473.1 350.1,471.9 353.1,470.6 356.1,469.3 359.0,468.0 361.9,466.6 364.8,465.1 367.7,463.6 370.6,462.1 373.4,460.5 376.2,458.9 378.9,457.2 381.6,455.5 384.3,453.8 387.0,452.0 389.6,450.1 392.2,448.3 394.7,446.3 397.3,444.4 399.7,442.4 402.2,440.3 404.6,438.3 406.9,436.2 409.2,434.0 411.5,431.8 413.7,429.6 415.9,427.3 418.1,425.0 420.2,422.7 422.2,420.3 424.2,417.9 426.2,415.5 428.1,413.1 430.0,410.6 431.8,408.1 433.6,405.5 435.3,402.9 437.0,400.3 438.6,397.7 440.2,395.1 441.7,392.4 443.2,389.7 444.6,386.9 446.0,384.2 447.3,381.4 448.6,378.6 449.8,375.8 450.9,373.0 452.1,370.2 453.1,367.3 454.1,364.4 455.0,361.5 455.9,358.6 456.7,355.7 457.5,352.8 458.2,349.8 458.9,346.9 459.5,343.9 460.0,340.9 460.5,337.9 461.0,334.9 461.3,331.9 461.6,328.9 461.9,325.9 462.1,322.9 462.2,319.9 462.3,316.9 462.4,313.8"/>
  <line x1="50.0" y1="640.0" x2="630.0" y2="110.0" stroke="#1565C0" stroke-width="1.2" stroke-dasharray="6 4"/>
  <line x1="406.9" y1="436.2" x2="273.1" y2="313.8" stroke="#000" stroke-width="2"/>
  <circle cx="406.9" cy="436.2" r="4.5" fill="#000"/>
  <text x="412.9" y="452.2" font-size="12">B(3,0)</text>
  <circle cx="273.1" cy="313.8" r="4.5" fill="#000"/>
  <text x="223.1" y="313.8" font-size="12">C(0,3)</text>
  <circle cx="317.7" cy="395.4" r="5" fill="#1565C0"/>
  <text x="325.7" y="399.4" font-size="10.5" fill="#1565C0">Q1(1, 1)</text>
  <circle cx="317.7" cy="283.6" r="5" fill="#C62828"/>
  <text x="325.7" y="287.6" font-size="10.5" fill="#C62828">Q2(1, √14≈3.74)</text>
  <circle cx="317.7" cy="588.7" r="5" fill="#C62828"/>
  <text x="325.7" y="592.7" font-size="10.5" fill="#C62828">Q3(1, -√14≈-3.74)</text>
  <circle cx="317.7" cy="145.8" r="5" fill="#2E7D32"/>
  <text x="325.7" y="149.8" font-size="10.5" fill="#2E7D32">Q4(1, 3+√17≈7.12)</text>
  <circle cx="317.7" cy="481.9" r="5" fill="#2E7D32"/>
  <text x="325.7" y="485.9" font-size="10.5" fill="#2E7D32">Q5(1, 3-√17≈-1.12)</text>
</svg>
