<?xml version="1.0" encoding="UTF-8"?>
<svg xmlns="http://www.w3.org/2000/svg" viewBox="0 0 660 660" width="660" height="660">
  <rect width="660" height="660" fill="white"/>
  <text x="330.0" y="26" text-anchor="middle" font-size="15" font-family="serif">
    极坐标基底向量: 径向 e_r 与 切向 e_&#952; (圆周运动)
  </text>
  <text x="330.0" y="46" text-anchor="middle" font-size="12" fill="#666">
    位置沿 e_r, 速度沿 e_&#952;, 向心加速度沿 -e_r
  </text>
  <line x1="88.0" y1="363.0" x2="572.0" y2="363.0" stroke="#bbb" stroke-width="1"/>
  <line x1="330.0" y1="605.0" x2="330.0" y2="121.0" stroke="#bbb" stroke-width="1"/>
  <polyline fill="none" stroke="#9C27B0" stroke-width="2" points="507.9,363.0 507.9,359.9 507.8,356.8 507.7,353.7 507.5,350.6 507.3,347.5 507.0,344.4 506.6,341.3 506.2,338.2 505.8,335.2 505.2,332.1 504.7,329.0 504.1,326.0 503.4,323.0 502.7,320.0 501.9,316.9 501.0,314.0 500.2,311.0 499.2,308.0 498.2,305.1 497.2,302.1 496.1,299.2 495.0,296.3 493.8,293.5 492.6,290.6 491.3,287.8 489.9,285.0 488.5,282.2 487.1,279.5 485.6,276.7 484.1,274.0 482.5,271.4 480.9,268.7 479.2,266.1 477.5,263.5 475.8,260.9 474.0,258.4 472.1,255.9 470.2,253.4 468.3,251.0 466.3,248.6 464.3,246.3 462.2,243.9 460.1,241.6 458.0,239.4 455.8,237.2 453.6,235.0 451.4,232.9 449.1,230.8 446.7,228.7 444.4,226.7 442.0,224.7 439.6,222.8 437.1,220.9 434.6,219.0 432.1,217.2 429.5,215.5 426.9,213.8 424.3,212.1 421.6,210.5 419.0,208.9 416.3,207.4 413.5,205.9 410.8,204.5 408.0,203.1 405.2,201.7 402.4,200.4 399.5,199.2 396.7,198.0 393.8,196.9 390.9,195.8 387.9,194.8 385.0,193.8 382.0,192.8 379.0,192.0 376.1,191.1 373.0,190.3 370.0,189.6 367.0,188.9 364.0,188.3 360.9,187.8 357.8,187.2 354.8,186.8 351.7,186.4 348.6,186.0 345.5,185.7 342.4,185.5 339.3,185.3 336.2,185.2 333.1,185.1 330.0,185.1 326.9,185.1 323.8,185.2 320.7,185.3 317.6,185.5 314.5,185.7 311.4,186.0 308.3,186.4 305.2,186.8 302.2,187.2 299.1,187.8 296.0,188.3 293.0,188.9 290.0,189.6 287.0,190.3 283.9,191.1 281.0,192.0 278.0,192.8 275.0,193.8 272.1,194.8 269.1,195.8 266.2,196.9 263.3,198.0 260.5,199.2 257.6,200.4 254.8,201.7 252.0,203.1 249.2,204.5 246.5,205.9 243.7,207.4 241.0,208.9 238.4,210.5 235.7,212.1 233.1,213.8 230.5,215.5 227.9,217.2 225.4,219.0 222.9,220.9 220.4,222.8 218.0,224.7 215.6,226.7 213.3,228.7 210.9,230.8 208.6,232.9 206.4,235.0 204.2,237.2 202.0,239.4 199.9,241.6 197.8,243.9 195.7,246.3 193.7,248.6 191.7,251.0 189.8,253.4 187.9,255.9 186.0,258.4 184.2,260.9 182.5,263.5 180.8,266.1 179.1,268.7 177.5,271.4 175.9,274.0 174.4,276.7 172.9,279.5 171.5,282.2 170.1,285.0 168.7,287.8 167.4,290.6 166.2,293.5 165.0,296.3 163.9,299.2 162.8,302.1 161.8,305.1 160.8,308.0 159.8,311.0 159.0,314.0 158.1,316.9 157.3,320.0 156.6,323.0 155.9,326.0 155.3,329.0 154.8,332.1 154.2,335.2 153.8,338.2 153.4,341.3 153.0,344.4 152.7,347.5 152.5,350.6 152.3,353.7 152.2,356.8 152.1,359.9 152.1,363.0 152.1,366.1 152.2,369.2 152.3,372.3 152.5,375.4 152.7,378.5 153.0,381.6 153.4,384.7 153.8,387.8 154.2,390.8 154.8,393.9 155.3,397.0 155.9,400.0 156.6,403.0 157.3,406.0 158.1,409.1 159.0,412.0 159.8,415.0 160.8,418.0 161.8,420.9 162.8,423.9 163.9,426.8 165.0,429.7 166.2,432.5 167.4,435.4 168.7,438.2 170.1,441.0 171.5,443.8 172.9,446.5 174.4,449.3 175.9,452.0 177.5,454.6 179.1,457.3 180.8,459.9 182.5,462.5 184.2,465.1 186.0,467.6 187.9,470.1 189.8,472.6 191.7,475.0 193.7,477.4 195.7,479.7 197.8,482.1 199.9,484.4 202.0,486.6 204.2,488.8 206.4,491.0 208.6,493.1 210.9,495.2 213.3,497.3 215.6,499.3 218.0,501.3 220.4,503.2 222.9,505.1 225.4,507.0 227.9,508.8 230.5,510.5 233.1,512.2 235.7,513.9 238.4,515.5 241.0,517.1 243.7,518.6 246.5,520.1 249.2,521.5 252.0,522.9 254.8,524.3 257.6,525.6 260.5,526.8 263.3,528.0 266.2,529.1 269.1,530.2 272.1,531.2 275.0,532.2 278.0,533.2 281.0,534.0 283.9,534.9 287.0,535.7 290.0,536.4 293.0,537.1 296.0,537.7 299.1,538.2 302.2,538.8 305.2,539.2 308.3,539.6 311.4,540.0 314.5,540.3 317.6,540.5 320.7,540.7 323.8,540.8 326.9,540.9 330.0,540.9 333.1,540.9 336.2,540.8 339.3,540.7 342.4,540.5 345.5,540.3 348.6,540.0 351.7,539.6 354.8,539.2 357.8,538.8 360.9,538.2 364.0,537.7 367.0,537.1 370.0,536.4 373.0,535.7 376.1,534.9 379.0,534.0 382.0,533.2 385.0,532.2 387.9,531.2 390.9,530.2 393.8,529.1 396.7,528.0 399.5,526.8 402.4,525.6 405.2,524.3 408.0,522.9 410.8,521.5 413.5,520.1 416.3,518.6 419.0,517.1 421.6,515.5 424.3,513.9 426.9,512.2 429.5,510.5 432.1,508.8 434.6,507.0 437.1,505.1 439.6,503.2 442.0,501.3 444.4,499.3 446.7,497.3 449.1,495.2 451.4,493.1 453.6,491.0 455.8,488.8 458.0,486.6 460.1,484.4 462.2,482.1 464.3,479.7 466.3,477.4 468.3,475.0 470.2,472.6 472.1,470.1 474.0,467.6 475.8,465.1 477.5,462.5 479.2,459.9 480.9,457.3 482.5,454.6 484.1,452.0 485.6,449.3 487.1,446.5 488.5,443.8 489.9,441.0 491.3,438.2 492.6,435.4 493.8,432.5 495.0,429.7 496.1,426.8 497.2,423.9 498.2,420.9 499.2,418.0 500.2,415.0 501.0,412.0 501.9,409.1 502.7,406.0 503.4,403.0 504.1,400.0 504.7,397.0 505.2,393.9 505.8,390.8 506.2,387.8 506.6,384.7 507.0,381.6 507.3,378.5 507.5,375.4 507.7,372.3 507.8,369.2 507.9,366.1 507.9,363.0"/>
  <line x1="330.0" y1="363.0" x2="432.1" y2="217.2" stroke="#7B1FA2" stroke-width="2.2"/>
  <polygon points="432.1,217.2 430.0,227.0 423.6,222.6" fill="#7B1FA2"/>
  <text x="347.0" y="284.1" font-size="12" fill="#7B1FA2">位置向量 r</text>
  <circle cx="330.0" cy="363.0" r="3.5" fill="#000"/>
  <text x="314.0" y="379.0" font-size="12">O</text>
  <line x1="432.1" y1="217.2" x2="474.9" y2="156.0" stroke="#1565C0" stroke-width="2.4"/>
  <polygon points="474.9,156.0 472.8,165.8 466.5,161.3" fill="#1565C0"/>
  <text x="478.9" y="158.0" font-size="13" fill="#1565C0">e_r</text>
  <line x1="432.1" y1="217.2" x2="370.8" y2="174.4" stroke="#2E7D32" stroke-width="2.4"/>
  <polygon points="370.8,174.4 380.6,176.5 376.2,182.8" fill="#2E7D32"/>
  <text x="340.8" y="170.4" font-size="13" fill="#2E7D32">e_&#952;</text>
  <line x1="432.1" y1="217.2" x2="332.9" y2="147.8" stroke="#2E7D32" stroke-width="1.4"/>
  <polygon points="332.9,147.8 342.7,149.9 338.3,156.3" fill="#2E7D32"/>
  <text x="288.9" y="161.8" font-size="11" fill="#2E7D32">速度 v</text>
  <line x1="432.1" y1="217.2" x2="383.1" y2="287.2" stroke="#E53935" stroke-width="1.4"/>
  <polygon points="383.1,287.2 385.2,277.4 391.5,281.9" fill="#E53935"/>
  <text x="387.1" y="287.2" font-size="11" fill="#E53935">向心加速度 a</text>
  <circle cx="432.1" cy="217.2" r="5" fill="#9C27B0"/>
  <text x="440.1" y="209.2" font-size="13" fill="#7B1FA2">P</text>
</svg>
