<?xml version="1.0" encoding="UTF-8"?>
<svg xmlns="http://www.w3.org/2000/svg" viewBox="0 0 660 700" width="660" height="700">
  <rect width="660" height="700" fill="white"/>
  <text x="330.0" y="24" text-anchor="middle" font-size="15" font-family="serif">
    升级: 对称轴上 Q(1,m) 使 &#9651;QBC 为直角三角形 (4 个解)
  </text>
  <text x="330.0" y="44" text-anchor="middle" font-size="12" fill="#666">
    直角在Q(红,落在以BC为直径的圆上) / 在B(蓝) / 在C(绿)
  </text>
  <line x1="137.6" y1="450.7" x2="522.4" y2="450.7" stroke="#ccc" stroke-width="1"/>
  <line x1="226.9" y1="114.0" x2="226.9" y2="650.0" stroke="#ccc" stroke-width="1"/>
  <line x1="295.6" y1="114.0" x2="295.6" y2="650.0" stroke="#FF9800" stroke-width="1.3" stroke-dasharray="5 4"/>
  <text x="299.6" y="126.0" font-size="10" fill="#FF9800">x=1</text>
  <polyline fill="none" stroke="#E53935" stroke-width="1.1" stroke-dasharray="4 3" points="475.8,347.6 475.8,345.1 475.7,342.6 475.6,340.0 475.4,337.5 475.2,334.9 475.0,332.4 474.7,329.9 474.4,327.4 474.0,324.8 473.6,322.3 473.1,319.8 472.6,317.3 472.0,314.8 471.4,312.4 470.8,309.9 470.1,307.5 469.4,305.0 468.6,302.6 467.8,300.2 467.0,297.8 466.1,295.4 465.2,293.0 464.2,290.7 463.2,288.3 462.1,286.0 461.0,283.7 459.9,281.5 458.7,279.2 457.5,277.0 456.2,274.8 455.0,272.6 453.6,270.4 452.3,268.2 450.9,266.1 449.4,264.0 447.9,262.0 446.4,259.9 444.9,257.9 443.3,255.9 441.7,253.9 440.0,252.0 438.3,250.1 436.6,248.2 434.9,246.4 433.1,244.6 431.3,242.8 429.4,241.0 427.5,239.3 425.6,237.6 423.7,236.0 421.7,234.4 419.7,232.8 417.7,231.2 415.7,229.7 413.6,228.2 411.5,226.8 409.4,225.4 407.2,224.0 405.1,222.7 402.9,221.4 400.7,220.1 398.4,218.9 396.2,217.8 393.9,216.6 391.6,215.5 389.3,214.5 387.0,213.5 384.6,212.5 382.2,211.6 379.9,210.7 377.5,209.8 375.0,209.0 372.6,208.2 370.2,207.5 367.7,206.8 365.3,206.2 362.8,205.6 360.3,205.1 357.8,204.5 355.3,204.1 352.8,203.7 350.3,203.3 347.8,203.0 345.2,202.7 342.7,202.4 340.2,202.2 337.6,202.1 335.1,202.0 332.5,201.9 330.0,201.9 327.5,201.9 324.9,202.0 322.4,202.1 319.8,202.2 317.3,202.4 314.8,202.7 312.2,203.0 309.7,203.3 307.2,203.7 304.7,204.1 302.2,204.5 299.7,205.1 297.2,205.6 294.7,206.2 292.3,206.8 289.8,207.5 287.4,208.2 285.0,209.0 282.5,209.8 280.1,210.7 277.8,211.6 275.4,212.5 273.0,213.5 270.7,214.5 268.4,215.5 266.1,216.6 263.8,217.8 261.6,218.9 259.3,220.1 257.1,221.4 254.9,222.7 252.8,224.0 250.6,225.4 248.5,226.8 246.4,228.2 244.3,229.7 242.3,231.2 240.3,232.8 238.3,234.4 236.3,236.0 234.4,237.6 232.5,239.3 230.6,241.0 228.7,242.8 226.9,244.6 225.1,246.4 223.4,248.2 221.7,250.1 220.0,252.0 218.3,253.9 216.7,255.9 215.1,257.9 213.6,259.9 212.1,262.0 210.6,264.0 209.1,266.1 207.7,268.2 206.4,270.4 205.0,272.6 203.8,274.8 202.5,277.0 201.3,279.2 200.1,281.5 199.0,283.7 197.9,286.0 196.8,288.3 195.8,290.7 194.8,293.0 193.9,295.4 193.0,297.8 192.2,300.2 191.4,302.6 190.6,305.0 189.9,307.5 189.2,309.9 188.6,312.4 188.0,314.8 187.4,317.3 186.9,319.8 186.4,322.3 186.0,324.8 185.6,327.4 185.3,329.9 185.0,332.4 184.8,334.9 184.6,337.5 184.4,340.0 184.3,342.6 184.2,345.1 184.2,347.6 184.2,350.2 184.3,352.7 184.4,355.3 184.6,357.8 184.8,360.3 185.0,362.9 185.3,365.4 185.6,367.9 186.0,370.4 186.4,373.0 186.9,375.5 187.4,377.9 188.0,380.4 188.6,382.9 189.2,385.4 189.9,387.8 190.6,390.3 191.4,392.7 192.2,395.1 193.0,397.5 193.9,399.9 194.8,402.2 195.8,404.6 196.8,406.9 197.9,409.2 199.0,411.5 200.1,413.8 201.3,416.1 202.5,418.3 203.8,420.5 205.0,422.7 206.4,424.9 207.7,427.0 209.1,429.2 210.6,431.3 212.1,433.3 213.6,435.4 215.1,437.4 216.7,439.4 218.3,441.3 220.0,443.3 221.7,445.2 223.4,447.1 225.1,448.9 226.9,450.7 228.7,452.5 230.6,454.3 232.5,456.0 234.4,457.7 236.3,459.3 238.3,460.9 240.3,462.5 242.3,464.1 244.3,465.6 246.4,467.1 248.5,468.5 250.6,469.9 252.8,471.3 254.9,472.6 257.1,473.9 259.3,475.1 261.6,476.4 263.8,477.5 266.1,478.7 268.4,479.8 270.7,480.8 273.0,481.8 275.4,482.8 277.8,483.7 280.1,484.6 282.5,485.5 285.0,486.3 287.4,487.0 289.8,487.8 292.3,488.4 294.7,489.1 297.2,489.7 299.7,490.2 302.2,490.7 304.7,491.2 307.2,491.6 309.7,492.0 312.2,492.3 314.8,492.6 317.3,492.9 319.8,493.1 322.4,493.2 324.9,493.3 327.5,493.4 330.0,493.4 332.5,493.4 335.1,493.3 337.6,493.2 340.2,493.1 342.7,492.9 345.2,492.6 347.8,492.3 350.3,492.0 352.8,491.6 355.3,491.2 357.8,490.7 360.3,490.2 362.8,489.7 365.3,489.1 367.7,488.4 370.2,487.8 372.6,487.0 375.0,486.3 377.5,485.5 379.9,484.6 382.2,483.7 384.6,482.8 387.0,481.8 389.3,480.8 391.6,479.8 393.9,478.7 396.2,477.5 398.4,476.4 400.7,475.1 402.9,473.9 405.1,472.6 407.2,471.3 409.4,469.9 411.5,468.5 413.6,467.1 415.7,465.6 417.7,464.1 419.7,462.5 421.7,460.9 423.7,459.3 425.6,457.7 427.5,456.0 429.4,454.3 431.3,452.5 433.1,450.7 434.9,448.9 436.6,447.1 438.3,445.2 440.0,443.3 441.7,441.3 443.3,439.4 444.9,437.4 446.4,435.4 447.9,433.3 449.4,431.3 450.9,429.2 452.3,427.0 453.6,424.9 455.0,422.7 456.2,420.5 457.5,418.3 458.7,416.1 459.9,413.8 461.0,411.5 462.1,409.2 463.2,406.9 464.2,404.6 465.2,402.2 466.1,399.9 467.0,397.5 467.8,395.1 468.6,392.7 469.4,390.3 470.1,387.8 470.8,385.4 471.4,382.9 472.0,380.4 472.6,377.9 473.1,375.5 473.6,373.0 474.0,370.4 474.4,367.9 474.7,365.4 475.0,362.9 475.2,360.3 475.4,357.8 475.6,355.3 475.7,352.7 475.8,350.2 475.8,347.6"/>
  <polyline fill="none" stroke="#9C27B0" stroke-width="2.2" points="137.6,539.4 138.9,533.5 140.2,527.7 141.4,521.9 142.7,516.1 144.0,510.5 145.3,504.8 146.6,499.2 147.9,493.7 149.1,488.2 150.4,482.8 151.7,477.4 153.0,472.0 154.3,466.7 155.5,461.4 156.8,456.2 158.1,451.1 159.4,446.0 160.7,440.9 162.0,435.9 163.2,430.9 164.5,426.0 165.8,421.1 167.1,416.3 168.4,411.5 169.7,406.8 170.9,402.1 172.2,397.5 173.5,392.9 174.8,388.4 176.1,383.9 177.4,379.5 178.6,375.1 179.9,370.7 181.2,366.4 182.5,362.2 183.8,358.0 185.1,353.8 186.3,349.7 187.6,345.7 188.9,341.7 190.2,337.7 191.5,333.8 192.7,329.9 194.0,326.1 195.3,322.3 196.6,318.6 197.9,314.9 199.2,311.3 200.4,307.7 201.7,304.2 203.0,300.7 204.3,297.3 205.6,293.9 206.9,290.6 208.1,287.3 209.4,284.0 210.7,280.8 212.0,277.7 213.3,274.6 214.6,271.5 215.8,268.5 217.1,265.6 218.4,262.7 219.7,259.8 221.0,257.0 222.3,254.2 223.5,251.5 224.8,248.8 226.1,246.2 227.4,243.7 228.7,241.1 229.9,238.6 231.2,236.2 232.5,233.8 233.8,231.5 235.1,229.2 236.4,227.0 237.6,224.8 238.9,222.7 240.2,220.6 241.5,218.5 242.8,216.5 244.1,214.6 245.3,212.7 246.6,210.8 247.9,209.0 249.2,207.2 250.5,205.5 251.8,203.9 253.0,202.3 254.3,200.7 255.6,199.2 256.9,197.7 258.2,196.3 259.4,194.9 260.7,193.6 262.0,192.3 263.3,191.1 264.6,189.9 265.9,188.7 267.1,187.7 268.4,186.6 269.7,185.6 271.0,184.7 272.3,183.8 273.6,182.9 274.8,182.1 276.1,181.4 277.4,180.7 278.7,180.0 280.0,179.4 281.3,178.9 282.5,178.3 283.8,177.9 285.1,177.5 286.4,177.1 287.7,176.8 289.0,176.5 290.2,176.3 291.5,176.1 292.8,176.0 294.1,175.9 295.4,175.8 296.6,175.9 297.9,175.9 299.2,176.0 300.5,176.2 301.8,176.4 303.1,176.6 304.3,176.9 305.6,177.3 306.9,177.7 308.2,178.1 309.5,178.6 310.8,179.2 312.0,179.8 313.3,180.4 314.6,181.1 315.9,181.8 317.2,182.6 318.5,183.4 319.7,184.3 321.0,185.2 322.3,186.2 323.6,187.2 324.9,188.3 326.2,189.4 327.4,190.6 328.7,191.8 330.0,193.0 331.3,194.3 332.6,195.7 333.8,197.1 335.1,198.5 336.4,200.0 337.7,201.6 339.0,203.2 340.3,204.8 341.5,206.5 342.8,208.2 344.1,210.0 345.4,211.9 346.7,213.7 348.0,215.7 349.2,217.7 350.5,219.7 351.8,221.8 353.1,223.9 354.4,226.0 355.7,228.3 356.9,230.5 358.2,232.8 359.5,235.2 360.8,237.6 362.1,240.1 363.4,242.6 364.6,245.1 365.9,247.7 367.2,250.4 368.5,253.1 369.8,255.8 371.0,258.6 372.3,261.4 373.6,264.3 374.9,267.3 376.2,270.2 377.5,273.3 378.7,276.3 380.0,279.5 381.3,282.6 382.6,285.9 383.9,289.1 385.2,292.5 386.4,295.8 387.7,299.2 389.0,302.7 390.3,306.2 391.6,309.8 392.9,313.4 394.1,317.0 395.4,320.7 396.7,324.5 398.0,328.3 399.3,332.1 400.6,336.0 401.8,339.9 403.1,343.9 404.4,348.0 405.7,352.1 407.0,356.2 408.2,360.4 409.5,364.6 410.8,368.9 412.1,373.2 413.4,377.6 414.7,382.0 415.9,386.5 417.2,391.0 418.5,395.5 419.8,400.1 421.1,404.8 422.4,409.5 423.6,414.3 424.9,419.1 426.2,423.9 427.5,428.8 428.8,433.8 430.1,438.8 431.3,443.8 432.6,448.9 433.9,454.0 435.2,459.2 436.5,464.4 437.7,469.7 439.0,475.1 440.3,480.4 441.6,485.9 442.9,491.3 444.2,496.9 445.4,502.4 446.7,508.0 448.0,513.7 449.3,519.4 450.6,525.2 451.9,531.0 453.1,536.8 454.4,542.7 455.7,548.7 457.0,554.7 458.3,560.7 459.6,566.8 460.8,573.0 462.1,579.2 463.4,585.4 464.7,591.7 466.0,598.0 467.3,604.4 468.5,610.8 469.8,617.3 471.1,623.9 472.4,630.4 473.7,637.1 474.9,643.7 476.2,650.4 477.5,657.2 478.8,664.0 480.1,670.9 481.4,677.8 482.6,684.7 483.9,691.8 485.2,698.8 486.5,705.9 487.8,713.1"/>
  <line x1="433.1" y1="450.7" x2="226.9" y2="244.6" stroke="#000" stroke-width="2"/>
  <circle cx="433.1" cy="450.7" r="4.5" fill="#000"/><text x="439.1" y="466.7" font-size="12">B(3,0)</text>
  <circle cx="226.9" cy="244.6" r="4.5" fill="#000"/><text x="176.9" y="244.6" font-size="12">C(0,3)</text>
  <polygon points="295.6,206.0 306.4,225.1 287.2,235.9 276.5,216.7" fill="none" stroke="#E53935" stroke-width="1.2"/>
  <polygon points="295.6,489.3 316.8,483.4 310.9,462.2 289.7,468.1" fill="none" stroke="#E53935" stroke-width="1.2"/>
  <polygon points="433.1,450.7 417.5,466.3 402.0,450.7 417.5,435.2" fill="none" stroke="#1565C0" stroke-width="1.2"/>
  <polygon points="226.9,244.6 242.5,229.0 258.0,244.6 242.5,260.1" fill="none" stroke="#2E7D32" stroke-width="1.2"/>
  <line x1="295.6" y1="588.2" x2="433.1" y2="450.7" stroke="#1565C0" stroke-width="1.2"/>
  <line x1="295.6" y1="175.8" x2="226.9" y2="244.6" stroke="#2E7D32" stroke-width="1.2"/>
  <circle cx="295.6" cy="206.0" r="5" fill="#E53935"/>
  <text x="303.6" y="210.0" font-size="10.5" fill="#E53935">Q(1,3.56) &#8736;Q=90&#176;</text>
  <circle cx="295.6" cy="489.3" r="5" fill="#E53935"/>
  <text x="303.6" y="493.3" font-size="10.5" fill="#E53935">Q(1,-0.56) &#8736;Q=90&#176;</text>
  <circle cx="295.6" cy="588.2" r="5" fill="#1565C0"/>
  <text x="303.6" y="592.2" font-size="10.5" fill="#1565C0">Q(1,-2.00) &#8736;B=90&#176;</text>
  <circle cx="295.6" cy="175.8" r="5" fill="#2E7D32"/>
  <text x="303.6" y="179.8" font-size="10.5" fill="#2E7D32">Q(1,4.00) &#8736;C=90&#176;</text>
</svg>
