<?xml version="1.0" encoding="UTF-8"?>
<svg xmlns="http://www.w3.org/2000/svg" viewBox="0 0 600 640" width="600" height="640">
  <rect width="600" height="640" fill="white"/>
  <text x="300.0" y="26" text-anchor="middle" font-size="15" font-family="serif">
    z&#8309; = 1 的五个根: 单位圆上均匀分布 (正五边形)
  </text>
  <text x="300.0" y="46" text-anchor="middle" font-size="12" fill="#666">
    z&#8342; = cos(72&#176;k) + i&#183;sin(72&#176;k),  k=0,1,2,3,4
  </text>
  <line x1="70.0" y1="355.0" x2="530.0" y2="355.0" stroke="#000" stroke-width="1"/>
  <line x1="300.0" y1="125.0" x2="300.0" y2="585.0" stroke="#000" stroke-width="1"/>
  <text x="522.0" y="371.0" font-size="11" font-style="italic">Re</text>
  <text x="306.0" y="133.0" font-size="11" font-style="italic">Im</text>
  <polyline fill="none" stroke="#bbb" stroke-width="1.2" points="458.6,355.0 458.6,352.2 458.5,349.5 458.4,346.7 458.2,343.9 458.0,341.2 457.8,338.4 457.4,335.7 457.1,332.9 456.7,330.2 456.2,327.5 455.7,324.7 455.2,322.0 454.6,319.3 453.9,316.6 453.2,313.9 452.5,311.3 451.7,308.6 450.9,306.0 450.0,303.4 449.1,300.7 448.1,298.2 447.1,295.6 446.0,293.0 444.9,290.5 443.8,288.0 442.6,285.5 441.3,283.0 440.1,280.5 438.7,278.1 437.4,275.7 436.0,273.3 434.5,270.9 433.0,268.6 431.5,266.3 429.9,264.0 428.3,261.8 426.7,259.5 425.0,257.3 423.3,255.2 421.5,253.0 419.7,250.9 417.9,248.9 416.0,246.8 414.1,244.8 412.2,242.8 410.2,240.9 408.2,239.0 406.1,237.1 404.1,235.3 402.0,233.5 399.8,231.7 397.7,230.0 395.5,228.3 393.2,226.7 391.0,225.1 388.7,223.5 386.4,222.0 384.1,220.5 381.7,219.0 379.3,217.6 376.9,216.3 374.5,214.9 372.0,213.7 369.5,212.4 367.0,211.2 364.5,210.1 362.0,209.0 359.4,207.9 356.8,206.9 354.3,205.9 351.6,205.0 349.0,204.1 346.4,203.3 343.7,202.5 341.1,201.8 338.4,201.1 335.7,200.4 333.0,199.8 330.3,199.3 327.5,198.8 324.8,198.3 322.1,197.9 319.3,197.6 316.6,197.2 313.8,197.0 311.1,196.8 308.3,196.6 305.5,196.5 302.8,196.4 300.0,196.4 297.2,196.4 294.5,196.5 291.7,196.6 288.9,196.8 286.2,197.0 283.4,197.2 280.7,197.6 277.9,197.9 275.2,198.3 272.5,198.8 269.7,199.3 267.0,199.8 264.3,200.4 261.6,201.1 258.9,201.8 256.3,202.5 253.6,203.3 251.0,204.1 248.4,205.0 245.7,205.9 243.2,206.9 240.6,207.9 238.0,209.0 235.5,210.1 233.0,211.2 230.5,212.4 228.0,213.7 225.5,214.9 223.1,216.3 220.7,217.6 218.3,219.0 215.9,220.5 213.6,222.0 211.3,223.5 209.0,225.1 206.8,226.7 204.5,228.3 202.3,230.0 200.2,231.7 198.0,233.5 195.9,235.3 193.9,237.1 191.8,239.0 189.8,240.9 187.8,242.8 185.9,244.8 184.0,246.8 182.1,248.9 180.3,250.9 178.5,253.0 176.7,255.2 175.0,257.3 173.3,259.5 171.7,261.8 170.1,264.0 168.5,266.3 167.0,268.6 165.5,270.9 164.0,273.3 162.6,275.7 161.3,278.1 159.9,280.5 158.7,283.0 157.4,285.5 156.2,288.0 155.1,290.5 154.0,293.0 152.9,295.6 151.9,298.2 150.9,300.7 150.0,303.4 149.1,306.0 148.3,308.6 147.5,311.3 146.8,313.9 146.1,316.6 145.4,319.3 144.8,322.0 144.3,324.7 143.8,327.5 143.3,330.2 142.9,332.9 142.6,335.7 142.2,338.4 142.0,341.2 141.8,343.9 141.6,346.7 141.5,349.5 141.4,352.2 141.4,355.0 141.4,357.8 141.5,360.5 141.6,363.3 141.8,366.1 142.0,368.8 142.2,371.6 142.6,374.3 142.9,377.1 143.3,379.8 143.8,382.5 144.3,385.3 144.8,388.0 145.4,390.7 146.1,393.4 146.8,396.1 147.5,398.7 148.3,401.4 149.1,404.0 150.0,406.6 150.9,409.3 151.9,411.8 152.9,414.4 154.0,417.0 155.1,419.5 156.2,422.0 157.4,424.5 158.7,427.0 159.9,429.5 161.3,431.9 162.6,434.3 164.0,436.7 165.5,439.1 167.0,441.4 168.5,443.7 170.1,446.0 171.7,448.2 173.3,450.5 175.0,452.7 176.7,454.8 178.5,457.0 180.3,459.1 182.1,461.1 184.0,463.2 185.9,465.2 187.8,467.2 189.8,469.1 191.8,471.0 193.9,472.9 195.9,474.7 198.0,476.5 200.2,478.3 202.3,480.0 204.5,481.7 206.8,483.3 209.0,484.9 211.3,486.5 213.6,488.0 215.9,489.5 218.3,491.0 220.7,492.4 223.1,493.7 225.5,495.1 228.0,496.3 230.5,497.6 233.0,498.8 235.5,499.9 238.0,501.0 240.6,502.1 243.2,503.1 245.7,504.1 248.4,505.0 251.0,505.9 253.6,506.7 256.3,507.5 258.9,508.2 261.6,508.9 264.3,509.6 267.0,510.2 269.7,510.7 272.5,511.2 275.2,511.7 277.9,512.1 280.7,512.4 283.4,512.8 286.2,513.0 288.9,513.2 291.7,513.4 294.5,513.5 297.2,513.6 300.0,513.6 302.8,513.6 305.5,513.5 308.3,513.4 311.1,513.2 313.8,513.0 316.6,512.8 319.3,512.4 322.1,512.1 324.8,511.7 327.5,511.2 330.3,510.7 333.0,510.2 335.7,509.6 338.4,508.9 341.1,508.2 343.7,507.5 346.4,506.7 349.0,505.9 351.6,505.0 354.3,504.1 356.8,503.1 359.4,502.1 362.0,501.0 364.5,499.9 367.0,498.8 369.5,497.6 372.0,496.3 374.5,495.1 376.9,493.7 379.3,492.4 381.7,491.0 384.1,489.5 386.4,488.0 388.7,486.5 391.0,484.9 393.2,483.3 395.5,481.7 397.7,480.0 399.8,478.3 402.0,476.5 404.1,474.7 406.1,472.9 408.2,471.0 410.2,469.1 412.2,467.2 414.1,465.2 416.0,463.2 417.9,461.1 419.7,459.1 421.5,457.0 423.3,454.8 425.0,452.7 426.7,450.5 428.3,448.2 429.9,446.0 431.5,443.7 433.0,441.4 434.5,439.1 436.0,436.7 437.4,434.3 438.7,431.9 440.1,429.5 441.3,427.0 442.6,424.5 443.8,422.0 444.9,419.5 446.0,417.0 447.1,414.4 448.1,411.8 449.1,409.3 450.0,406.6 450.9,404.0 451.7,401.4 452.5,398.7 453.2,396.1 453.9,393.4 454.6,390.7 455.2,388.0 455.7,385.3 456.2,382.5 456.7,379.8 457.1,377.1 457.4,374.3 457.8,371.6 458.0,368.8 458.2,366.1 458.4,363.3 458.5,360.5 458.6,357.8 458.6,355.0"/>
  <polygon points="458.6,355.0 349.0,204.1 171.7,261.8 171.7,448.2 349.0,505.9" fill="#90CAF9" fill-opacity="0.18" stroke="#1565C0" stroke-width="1.6"/>
  <circle cx="300.0" cy="355.0" r="3" fill="#000"/>
  <line x1="300.0" y1="355.0" x2="458.6" y2="355.0" stroke="#9C27B0" stroke-width="1" stroke-dasharray="3 2"/>
  <circle cx="458.6" cy="355.0" r="5.5" fill="#9C27B0"/>
  <text x="466.6" y="359.0" font-size="11" fill="#7B1FA2">z0 (0&#176;)</text>
  <line x1="300.0" y1="355.0" x2="349.0" y2="204.1" stroke="#9C27B0" stroke-width="1" stroke-dasharray="3 2"/>
  <circle cx="349.0" cy="204.1" r="5.5" fill="#9C27B0"/>
  <text x="346.0" y="194.8" font-size="11" fill="#7B1FA2">z1 (72&#176;)</text>
  <line x1="300.0" y1="355.0" x2="171.7" y2="261.8" stroke="#9C27B0" stroke-width="1" stroke-dasharray="3 2"/>
  <circle cx="171.7" cy="261.8" r="5.5" fill="#9C27B0"/>
  <text x="150.7" y="257.5" font-size="11" fill="#7B1FA2">z2 (144&#176;)</text>
  <line x1="300.0" y1="355.0" x2="171.7" y2="448.2" stroke="#9C27B0" stroke-width="1" stroke-dasharray="3 2"/>
  <circle cx="171.7" cy="448.2" r="5.5" fill="#9C27B0"/>
  <text x="150.7" y="460.5" font-size="11" fill="#7B1FA2">z3 (216&#176;)</text>
  <line x1="300.0" y1="355.0" x2="349.0" y2="505.9" stroke="#9C27B0" stroke-width="1" stroke-dasharray="3 2"/>
  <circle cx="349.0" cy="505.9" r="5.5" fill="#9C27B0"/>
  <text x="346.0" y="523.2" font-size="11" fill="#7B1FA2">z4 (288&#176;)</text>

  <rect x="55" y="76" width="150" height="56" fill="white" fill-opacity="0.9" stroke="#ccc" rx="4"/>
  <text x="67" y="96" font-size="11">5 根间隔 360&#176;/5</text>
  <text x="67" y="114" font-size="11">= 72&#176;, 模都为 1</text>
</svg>
