<?xml version="1.0" encoding="UTF-8"?>
<svg xmlns="http://www.w3.org/2000/svg" viewBox="0 0 720 560" width="720" height="560">
  <rect width="720" height="560" fill="white"/>
  <text x="360.0" y="26" text-anchor="middle" font-size="15" font-family="serif">
    导数的定义: 割线斜率的极限 = 切线斜率 (y=x&#178; 在 P(1,1))
  </text>
  <text x="360.0" y="46" text-anchor="middle" font-size="12" fill="#666">
    Q 越靠近 P, 割线斜率 -&gt; 2, 这个极限就是 f'(1)=2
  </text>
  <line x1="254.1" y1="448.5" x2="465.9" y2="448.5" stroke="#999" stroke-width="1"/>
  <line x1="324.7" y1="119.0" x2="324.7" y2="505.0" stroke="#999" stroke-width="1"/>
  <text x="371.8" y="462.5" text-anchor="middle" font-size="9">1</text>
  <text x="418.8" y="462.5" text-anchor="middle" font-size="9">2</text>
  <line x1="263.5" y1="780.4" x2="456.5" y2="104.9" stroke="#bbbbbb" stroke-width="1.2"/>
  <circle cx="442.4" cy="154.3" r="3.5" fill="#bbbbbb"/>
  <line x1="263.5" y1="726.2" x2="456.5" y2="147.2" stroke="#90a4d4" stroke-width="1.2"/>
  <circle cx="418.8" cy="260.2" r="3.5" fill="#90a4d4"/>
  <line x1="263.5" y1="672.1" x2="456.5" y2="189.6" stroke="#5c7fd6" stroke-width="1.2"/>
  <circle cx="395.3" cy="342.6" r="3.5" fill="#5c7fd6"/>
  <line x1="263.5" y1="645.0" x2="456.5" y2="210.8" stroke="#3f6ed4" stroke-width="1.2"/>
  <circle cx="383.5" cy="375.0" r="3.5" fill="#3f6ed4"/>
  <line x1="263.5" y1="618.0" x2="456.5" y2="232.0" stroke="#E65100" stroke-width="2.6"/>
  <text x="441.7" y="269.6" font-size="11" fill="#E65100">切线 y=2x-1</text>
  <polyline fill="none" stroke="#9C27B0" stroke-width="2.4" points="254.1,342.6 254.8,344.7 255.5,346.8 256.2,348.9 256.9,350.9 257.6,352.9 258.3,354.9 259.0,356.9 259.7,358.9 260.4,360.8 261.1,362.7 261.9,364.6 262.6,366.5 263.3,368.3 264.0,370.2 264.7,372.0 265.4,373.8 266.1,375.5 266.8,377.3 267.5,379.0 268.2,380.7 268.9,382.4 269.6,384.1 270.3,385.7 271.0,387.3 271.7,388.9 272.4,390.5 273.1,392.1 273.9,393.6 274.6,395.1 275.3,396.6 276.0,398.1 276.7,399.5 277.4,401.0 278.1,402.4 278.8,403.8 279.5,405.1 280.2,406.5 280.9,407.8 281.6,409.1 282.3,410.4 283.0,411.6 283.7,412.9 284.4,414.1 285.2,415.3 285.9,416.5 286.6,417.6 287.3,418.8 288.0,419.9 288.7,421.0 289.4,422.0 290.1,423.1 290.8,424.1 291.5,425.1 292.2,426.1 292.9,427.1 293.6,428.0 294.3,428.9 295.0,429.8 295.7,430.7 296.5,431.6 297.2,432.4 297.9,433.2 298.6,434.0 299.3,434.8 300.0,435.5 300.7,436.3 301.4,437.0 302.1,437.7 302.8,438.3 303.5,439.0 304.2,439.6 304.9,440.2 305.6,440.8 306.3,441.4 307.0,441.9 307.7,442.4 308.5,442.9 309.2,443.4 309.9,443.8 310.6,444.3 311.3,444.7 312.0,445.1 312.7,445.5 313.4,445.8 314.1,446.1 314.8,446.4 315.5,446.7 316.2,447.0 316.9,447.2 317.6,447.5 318.3,447.7 319.0,447.8 319.8,448.0 320.5,448.1 321.2,448.2 321.9,448.3 322.6,448.4 323.3,448.5 324.0,448.5 324.7,448.5 325.4,448.5 326.1,448.5 326.8,448.4 327.5,448.3 328.2,448.2 328.9,448.1 329.6,448.0 330.3,447.8 331.0,447.7 331.8,447.5 332.5,447.2 333.2,447.0 333.9,446.7 334.6,446.4 335.3,446.1 336.0,445.8 336.7,445.5 337.4,445.1 338.1,444.7 338.8,444.3 339.5,443.8 340.2,443.4 340.9,442.9 341.6,442.4 342.3,441.9 343.1,441.4 343.8,440.8 344.5,440.2 345.2,439.6 345.9,439.0 346.6,438.3 347.3,437.7 348.0,437.0 348.7,436.3 349.4,435.5 350.1,434.8 350.8,434.0 351.5,433.2 352.2,432.4 352.9,431.6 353.6,430.7 354.4,429.8 355.1,428.9 355.8,428.0 356.5,427.1 357.2,426.1 357.9,425.1 358.6,424.1 359.3,423.1 360.0,422.0 360.7,421.0 361.4,419.9 362.1,418.8 362.8,417.6 363.5,416.5 364.2,415.3 364.9,414.1 365.6,412.9 366.4,411.6 367.1,410.4 367.8,409.1 368.5,407.8 369.2,406.5 369.9,405.1 370.6,403.8 371.3,402.4 372.0,401.0 372.7,399.5 373.4,398.1 374.1,396.6 374.8,395.1 375.5,393.6 376.2,392.1 376.9,390.5 377.7,388.9 378.4,387.3 379.1,385.7 379.8,384.1 380.5,382.4 381.2,380.7 381.9,379.0 382.6,377.3 383.3,375.5 384.0,373.8 384.7,372.0 385.4,370.2 386.1,368.3 386.8,366.5 387.5,364.6 388.2,362.7 388.9,360.8 389.7,358.9 390.4,356.9 391.1,354.9 391.8,352.9 392.5,350.9 393.2,348.9 393.9,346.8 394.6,344.7 395.3,342.6 396.0,340.5 396.7,338.3 397.4,336.1 398.1,334.0 398.8,331.7 399.5,329.5 400.2,327.3 401.0,325.0 401.7,322.7 402.4,320.4 403.1,318.0 403.8,315.7 404.5,313.3 405.2,310.9 405.9,308.4 406.6,306.0 407.3,303.5 408.0,301.0 408.7,298.5 409.4,296.0 410.1,293.4 410.8,290.9 411.5,288.3 412.3,285.7 413.0,283.0 413.7,280.4 414.4,277.7 415.1,275.0 415.8,272.3 416.5,269.5 417.2,266.8 417.9,264.0 418.6,261.2 419.3,258.3 420.0,255.5 420.7,252.6 421.4,249.7 422.1,246.8 422.8,243.9 423.5,240.9 424.3,237.9 425.0,234.9 425.7,231.9 426.4,228.9 427.1,225.8 427.8,222.7 428.5,219.6 429.2,216.5 429.9,213.4 430.6,210.2 431.3,207.0 432.0,203.8 432.7,200.6 433.4,197.3 434.1,194.1 434.8,190.8 435.6,187.4 436.3,184.1 437.0,180.7 437.7,177.4 438.4,174.0 439.1,170.5 439.8,167.1 440.5,163.6 441.2,160.2 441.9,156.7 442.6,153.1 443.3,149.6 444.0,146.0 444.7,142.4 445.4,138.8 446.1,135.2 446.9,131.5 447.6,127.8 448.3,124.1 449.0,120.4 449.7,116.7 450.4,112.9 451.1,109.2 451.8,105.3 452.5,101.5 453.2,97.7"/>
  <circle cx="371.8" cy="401.4" r="5" fill="#E65100"/>
  <text x="335.8" y="419.4" font-size="12" fill="#E65100">P(1,1)</text>

  <rect x="61" y="72" width="186" height="118" fill="white" fill-opacity="0.93" stroke="#ccc" rx="4"/>
  <text x="73" y="92" font-size="11">割线斜率 (P 到 Q):</text>
  <text x="73" y="110" font-size="11">Q=2.5  -&gt; 3.5</text>
  <text x="73" y="126" font-size="11">Q=2.0  -&gt; 3.0</text>
  <text x="73" y="142" font-size="11">Q=1.5  -&gt; 2.5</text>
  <text x="73" y="158" font-size="11">Q=1.25 -&gt; 2.25</text>
  <text x="73" y="178" font-size="11" fill="#E65100">极限 -&gt; 2 = f'(1)</text>
</svg>
