<?xml version="1.0" encoding="UTF-8"?>
<svg xmlns="http://www.w3.org/2000/svg" viewBox="0 0 800 500" width="800" height="500">
  <rect width="800" height="500" fill="white"/>
  
  <!-- 标题 -->
  <text x="400.0" y="30" text-anchor="middle" font-size="18" font-family="serif" font-style="italic">
    y = sin(x) / x
  </text>
  <!-- 网格线 -->
  <g stroke="#e0e0e0" stroke-width="0.5">
    <line x1="80" y1="377.5" x2="720" y2="377.5"/>
    <line x1="80" y1="335.0" x2="720" y2="335.0"/>
    <line x1="80" y1="292.5" x2="720" y2="292.5"/>
    <line x1="80" y1="250.0" x2="720" y2="250.0"/>
    <line x1="80" y1="207.5" x2="720" y2="207.5"/>
    <line x1="80" y1="165.0" x2="720" y2="165.0"/>
    <line x1="80" y1="122.5" x2="720" y2="122.5"/>
    <line x1="160.0" y1="80" x2="160.0" y2="420"/>
    <line x1="240.0" y1="80" x2="240.0" y2="420"/>
    <line x1="320.0" y1="80" x2="320.0" y2="420"/>
    <line x1="400.0" y1="80" x2="400.0" y2="420"/>
    <line x1="480.0" y1="80" x2="480.0" y2="420"/>
    <line x1="560.0" y1="80" x2="560.0" y2="420"/>
    <line x1="640.0" y1="80" x2="640.0" y2="420"/>
  </g>

  <!-- 坐标轴 -->
  <line x1="80" y1="335.0" x2="720" y2="335.0" stroke="black" stroke-width="1"/>
  <line x1="400.0" y1="80" x2="400.0" y2="420" stroke="black" stroke-width="1"/>
  <!-- X轴刻度 -->
  <text x="80.0" y="350.0" text-anchor="middle" font-size="10">-20</text>
  <text x="160.0" y="350.0" text-anchor="middle" font-size="10">-15</text>
  <text x="240.0" y="350.0" text-anchor="middle" font-size="10">-10</text>
  <text x="320.0" y="350.0" text-anchor="middle" font-size="10">-5</text>
  <text x="480.0" y="350.0" text-anchor="middle" font-size="10">5</text>
  <text x="560.0" y="350.0" text-anchor="middle" font-size="10">10</text>
  <text x="640.0" y="350.0" text-anchor="middle" font-size="10">15</text>
  <text x="720.0" y="350.0" text-anchor="middle" font-size="10">20</text>
  <!-- Y轴刻度 -->
  <text x="392.0" y="424.0" text-anchor="end" font-size="10">-0.4</text>
  <text x="392.0" y="381.5" text-anchor="end" font-size="10">-0.2</text>
  <text x="392.0" y="296.5" text-anchor="end" font-size="10">0.2</text>
  <text x="392.0" y="254.0" text-anchor="end" font-size="10">0.4</text>
  <text x="392.0" y="211.5" text-anchor="end" font-size="10">0.6</text>
  <text x="392.0" y="169.0" text-anchor="end" font-size="10">0.8</text>
  <text x="392.0" y="126.5" text-anchor="end" font-size="10">1.0</text>
  <text x="392.0" y="84.0" text-anchor="end" font-size="10">1.2</text>
  <text x="730" y="339.0" font-size="13" font-family="serif" font-style="italic">x</text>
  <text x="408.0" y="75" font-size="13" font-family="serif" font-style="italic">y</text>

  <!-- 函数曲线 -->
  <polyline fill="none" stroke="#2196F3" stroke-width="2.5" stroke-linejoin="round" 
            points="80.0,325.3 81.3,325.6 82.6,326.0 83.8,326.5 85.1,327.0 86.4,327.6 87.7,328.2 89.0,328.9 90.2,329.6 91.5,330.4 92.8,331.2 94.1,332.0 95.4,332.9 96.6,333.8 97.9,334.7 99.2,335.6 100.5,336.5 101.8,337.4 103.0,338.3 104.3,339.2 105.6,340.0 106.9,340.9 108.2,341.7 109.4,342.4 110.7,343.2 112.0,343.9 113.3,344.5 114.6,345.1 115.8,345.6 117.1,346.1 118.4,346.5 119.7,346.8 121.0,347.0 122.2,347.2 123.5,347.3 124.8,347.3 126.1,347.3 127.4,347.1 128.6,346.9 129.9,346.6 131.2,346.2 132.5,345.8 133.8,345.3 135.0,344.7 136.3,344.0 137.6,343.3 138.9,342.5 140.2,341.6 141.4,340.7 142.7,339.8 144.0,338.8 145.3,337.8 146.6,336.8 147.8,335.7 149.1,334.6 150.4,333.5 151.7,332.4 153.0,331.4 154.2,330.3 155.5,329.2 156.8,328.2 158.1,327.2 159.4,326.2 160.6,325.3 161.9,324.5 163.2,323.7 164.5,322.9 165.8,322.3 167.0,321.7 168.3,321.2 169.6,320.7 170.9,320.4 172.2,320.2 173.4,320.0 174.7,319.9 176.0,320.0 177.3,320.1 178.6,320.3 179.8,320.6 181.1,321.1 182.4,321.6 183.7,322.2 185.0,322.9 186.2,323.7 187.5,324.5 188.8,325.5 190.1,326.5 191.4,327.6 192.6,328.7 193.9,329.9 195.2,331.2 196.5,332.4 197.8,333.8 199.0,335.1 200.3,336.5 201.6,337.8 202.9,339.2 204.2,340.6 205.4,341.9 206.7,343.2 208.0,344.5 209.3,345.7 210.6,346.9 211.8,348.0 213.1,349.1 214.4,350.1 215.7,351.0 217.0,351.8 218.2,352.5 219.5,353.1 220.8,353.6 222.1,354.0 223.4,354.2 224.6,354.4 225.9,354.4 227.2,354.3 228.5,354.1 229.8,353.7 231.0,353.2 232.3,352.6 233.6,351.9 234.9,351.1 236.2,350.1 237.4,349.0 238.7,347.8 240.0,346.6 241.3,345.2 242.6,343.7 243.8,342.2 245.1,340.5 246.4,338.9 247.7,337.1 249.0,335.3 250.2,333.5 251.5,331.7 252.8,329.9 254.1,328.0 255.4,326.2 256.6,324.4 257.9,322.6 259.2,320.9 260.5,319.2 261.8,317.6 263.0,316.1 264.3,314.7 265.6,313.4 266.9,312.2 268.2,311.1 269.4,310.2 270.7,309.4 272.0,308.7 273.3,308.2 274.6,307.9 275.8,307.7 277.1,307.7 278.4,307.9 279.7,308.3 281.0,308.9 282.2,309.6 283.5,310.5 284.8,311.6 286.1,312.8 287.4,314.3 288.6,315.9 289.9,317.6 291.2,319.6 292.5,321.6 293.8,323.8 295.0,326.1 296.3,328.6 297.6,331.1 298.9,333.8 300.2,336.5 301.4,339.2 302.7,342.1 304.0,344.9 305.3,347.8 306.6,350.6 307.8,353.4 309.1,356.2 310.4,359.0 311.7,361.6 313.0,364.2 314.2,366.6 315.5,368.9 316.8,371.1 318.1,373.1 319.4,374.9 320.6,376.5 321.9,377.9 323.2,379.1 324.5,380.0 325.8,380.7 327.0,381.1 328.3,381.2 329.6,381.0 330.9,380.5 332.2,379.6 333.4,378.5 334.7,377.0 336.0,375.2 337.3,373.1 338.6,370.6 339.8,367.8 341.1,364.6 342.4,361.1 343.7,357.3 345.0,353.2 346.2,348.7 347.5,343.9 348.8,338.9 350.1,333.5 351.4,327.9 352.6,322.0 353.9,315.9 355.2,309.6 356.5,303.0 357.8,296.3 359.0,289.4 360.3,282.4 361.6,275.2 362.9,267.9 364.2,260.6 365.4,253.2 366.7,245.8 368.0,238.4 369.3,231.0 370.6,223.7 371.8,216.4 373.1,209.3 374.4,202.2 375.7,195.4 377.0,188.7 378.2,182.2 379.5,176.0 380.8,170.0 382.1,164.2 383.4,158.8 384.6,153.7 385.9,148.9 387.2,144.5 388.5,140.4 389.8,136.7 391.0,133.4 392.3,130.6 393.6,128.1 394.9,126.1 396.2,124.5 397.4,123.4 398.7,122.7 400.0,122.5 401.3,122.7 402.6,123.4 403.8,124.5 405.1,126.1 406.4,128.1 407.7,130.6 409.0,133.4 410.2,136.7 411.5,140.4 412.8,144.5 414.1,148.9 415.4,153.7 416.6,158.8 417.9,164.2 419.2,170.0 420.5,176.0 421.8,182.2 423.0,188.7 424.3,195.4 425.6,202.2 426.9,209.3 428.2,216.4 429.4,223.7 430.7,231.0 432.0,238.4 433.3,245.8 434.6,253.2 435.8,260.6 437.1,267.9 438.4,275.2 439.7,282.4 441.0,289.4 442.2,296.3 443.5,303.0 444.8,309.6 446.1,315.9 447.4,322.0 448.6,327.9 449.9,333.5 451.2,338.9 452.5,343.9 453.8,348.7 455.0,353.2 456.3,357.3 457.6,361.1 458.9,364.6 460.2,367.8 461.4,370.6 462.7,373.1 464.0,375.2 465.3,377.0 466.6,378.5 467.8,379.6 469.1,380.5 470.4,381.0 471.7,381.2 473.0,381.1 474.2,380.7 475.5,380.0 476.8,379.1 478.1,377.9 479.4,376.5 480.6,374.9 481.9,373.1 483.2,371.1 484.5,368.9 485.8,366.6 487.0,364.2 488.3,361.6 489.6,359.0 490.9,356.2 492.2,353.4 493.4,350.6 494.7,347.8 496.0,344.9 497.3,342.1 498.6,339.2 499.8,336.5 501.1,333.8 502.4,331.1 503.7,328.6 505.0,326.1 506.2,323.8 507.5,321.6 508.8,319.6 510.1,317.6 511.4,315.9 512.6,314.3 513.9,312.8 515.2,311.6 516.5,310.5 517.8,309.6 519.0,308.9 520.3,308.3 521.6,307.9 522.9,307.7 524.2,307.7 525.4,307.9 526.7,308.2 528.0,308.7 529.3,309.4 530.6,310.2 531.8,311.1 533.1,312.2 534.4,313.4 535.7,314.7 537.0,316.1 538.2,317.6 539.5,319.2 540.8,320.9 542.1,322.6 543.4,324.4 544.6,326.2 545.9,328.0 547.2,329.9 548.5,331.7 549.8,333.5 551.0,335.3 552.3,337.1 553.6,338.9 554.9,340.5 556.2,342.2 557.4,343.7 558.7,345.2 560.0,346.6 561.3,347.8 562.6,349.0 563.8,350.1 565.1,351.1 566.4,351.9 567.7,352.6 569.0,353.2 570.2,353.7 571.5,354.1 572.8,354.3 574.1,354.4 575.4,354.4 576.6,354.2 577.9,354.0 579.2,353.6 580.5,353.1 581.8,352.5 583.0,351.8 584.3,351.0 585.6,350.1 586.9,349.1 588.2,348.0 589.4,346.9 590.7,345.7 592.0,344.5 593.3,343.2 594.6,341.9 595.8,340.6 597.1,339.2 598.4,337.8 599.7,336.5 601.0,335.1 602.2,333.8 603.5,332.4 604.8,331.2 606.1,329.9 607.4,328.7 608.6,327.6 609.9,326.5 611.2,325.5 612.5,324.5 613.8,323.7 615.0,322.9 616.3,322.2 617.6,321.6 618.9,321.1 620.2,320.6 621.4,320.3 622.7,320.1 624.0,320.0 625.3,319.9 626.6,320.0 627.8,320.2 629.1,320.4 630.4,320.7 631.7,321.2 633.0,321.7 634.2,322.3 635.5,322.9 636.8,323.7 638.1,324.5 639.4,325.3 640.6,326.2 641.9,327.2 643.2,328.2 644.5,329.2 645.8,330.3 647.0,331.4 648.3,332.4 649.6,333.5 650.9,334.6 652.2,335.7 653.4,336.8 654.7,337.8 656.0,338.8 657.3,339.8 658.6,340.7 659.8,341.6 661.1,342.5 662.4,343.3 663.7,344.0 665.0,344.7 666.2,345.3 667.5,345.8 668.8,346.2 670.1,346.6 671.4,346.9 672.6,347.1 673.9,347.3 675.2,347.3 676.5,347.3 677.8,347.2 679.0,347.0 680.3,346.8 681.6,346.5 682.9,346.1 684.2,345.6 685.4,345.1 686.7,344.5 688.0,343.9 689.3,343.2 690.6,342.4 691.8,341.7 693.1,340.9 694.4,340.0 695.7,339.2 697.0,338.3 698.2,337.4 699.5,336.5 700.8,335.6 702.1,334.7 703.4,333.8 704.6,332.9 705.9,332.0 707.2,331.2 708.5,330.4 709.8,329.6 711.0,328.9 712.3,328.2 713.6,327.6 714.9,327.0 716.2,326.5 717.4,326.0 718.7,325.6 720.0,325.3"/>

  <!-- 标注极限点 -->
  <circle cx="400.0" cy="122.5" r="4" fill="#F44336"/>
  <text x="410.0" y="114.5" font-size="12" fill="#F44336">lim(x→0) = 1</text>

  <!-- 图例 -->
  <rect x="600" y="45" width="130" height="28" fill="white" stroke="#ccc" rx="4"/>
  <line x1="610" y1="59" x2="640" y2="59" stroke="#2196F3" stroke-width="2.5"/>
  <text x="645" y="64" font-size="12" font-family="serif">y = sin(x)/x</text>
</svg>
