<svg xmlns="http://www.w3.org/2000/svg" viewBox="0 0 800 500" width="800" height="500">
  <!-- 背景 -->
  <rect width="800" height="500" fill="white"/>
  
  <!-- 标题 -->
  <text x="400" y="35" text-anchor="middle" font-size="20" font-family="serif">
    y = sin(x) / x
  </text>

  <!-- 绘图区域: x=80..760, y=60..440 -->
  <!-- x 范围: -20 到 20, y 范围: -0.4 到 1.2 -->
  
  <!-- 网格线 -->
  <g stroke="#ddd" stroke-width="0.5">
    <!-- 水平网格 -->
    <line x1="80" y1="108.75" x2="760" y2="108.75"/> <!-- y=0.8 -->
    <line x1="80" y1="203.75" x2="760" y2="203.75"/> <!-- y=0.4 -->
    <line x1="80" y1="346.25" x2="760" y2="346.25"/> <!-- y=-0.2 -->
    <!-- 垂直网格 -->
    <line x1="165" y1="60" x2="165" y2="440"/> <!-- x=-15 -->
    <line x1="250" y1="60" x2="250" y2="440"/> <!-- x=-10 -->
    <line x1="335" y1="60" x2="335" y2="440"/> <!-- x=-5 -->
    <line x1="505" y1="60" x2="505" y2="440"/> <!-- x=5 -->
    <line x1="590" y1="60" x2="590" y2="440"/> <!-- x=10 -->
    <line x1="675" y1="60" x2="675" y2="440"/> <!-- x=15 -->
  </g>

  <!-- 坐标轴 -->
  <line x1="80" y1="298.75" x2="760" y2="298.75" stroke="black" stroke-width="1"/> <!-- y=0 轴 -->
  <line x1="420" y1="60" x2="420" y2="440" stroke="black" stroke-width="1"/> <!-- x=0 轴 -->

  <!-- 坐标轴标签 -->
  <text x="760" y="315" font-size="12" font-family="sans-serif">x</text>
  <text x="425" y="72" font-size="12" font-family="sans-serif">y</text>
  
  <!-- x 轴刻度 -->
  <text x="250" y="318" text-anchor="middle" font-size="10">-10</text>
  <text x="335" y="318" text-anchor="middle" font-size="10">-5</text>
  <text x="505" y="318" text-anchor="middle" font-size="10">5</text>
  <text x="590" y="318" text-anchor="middle" font-size="10">10</text>
  <text x="675" y="318" text-anchor="middle" font-size="10">15</text>
  <text x="165" y="318" text-anchor="middle" font-size="10">-15</text>

  <!-- y 轴刻度 -->
  <text x="70" y="64" text-anchor="end" font-size="10">1.2</text>
  <text x="70" y="112" text-anchor="end" font-size="10">0.8</text>
  <text x="70" y="207" text-anchor="end" font-size="10">0.4</text>
  <text x="70" y="302" text-anchor="end" font-size="10">0</text>
  <text x="70" y="350" text-anchor="end" font-size="10">-0.2</text>
  <text x="70" y="444" text-anchor="end" font-size="10">-0.4</text>

  <!-- 函数曲线 y = sin(x)/x -->
  <!-- 坐标转换: px_x = 420 + x*17, px_y = 298.75 - y*237.5 -->
  <polyline fill="none" stroke="blue" stroke-width="2" points="
    80,296.1
    83.4,295.8
    86.8,295.3
    90.2,294.5
    93.6,293.4
    97,291.9
    100.4,290.2
    103.8,288.1
    107.2,285.8
    110.6,283.2
    114,280.5
    117.4,277.7
    120.8,274.9
    124.2,272.2
    127.6,269.7
    131,267.5
    134.4,265.8
    137.8,264.7
    141.2,264.2
    144.6,264.4
    148,265.4
    151.4,267.0
    154.8,269.3
    158.2,272.1
    161.6,275.3
    165,278.8
    168.4,282.4
    171.8,286.0
    175.2,289.4
    178.6,292.5
    182,295.1
    185.4,297.2
    188.8,298.6
    192.2,299.3
    195.6,299.2
    199,298.3
    202.4,296.6
    205.8,294.2
    209.2,291.1
    212.6,287.5
    216,283.5
    219.4,279.2
    222.8,274.9
    226.2,270.7
    229.6,266.8
    233,263.4
    236.4,260.8
    239.8,259.1
    243.2,258.4
    246.6,258.9
    250,260.6
    253.4,263.4
    256.8,267.2
    260.2,271.7
    263.6,276.7
    267,281.8
    270.4,286.7
    273.8,291.0
    277.2,294.3
    280.6,296.4
    284,296.9
    287.4,295.7
    290.8,292.6
    294.2,287.6
    297.6,280.9
    301,272.5
    304.4,262.9
    307.8,252.3
    311.2,241.2
    314.6,230.1
    318,219.5
    321.4,210.1
    324.8,202.3
    328.2,197.0
    331.6,194.5
    335,195.3
    338.4,199.6
    341.8,207.4
    345.2,218.5
    348.6,232.5
    352,248.7
    355.4,266.5
    358.8,284.9
    362.2,302.6
    365.6,318.0
    369,329.3
    372.4,334.5
    375.8,331.5
    379.2,318.8
    382.6,295.5
    386,261.2
    389.4,216.3
    392.8,161.7
    396.2,99.7
    399.6,33.0
    403,33.0
    406.4,33.0
    409.8,33.0
    413.2,48.3
    416.6,60.0
    420,61.25
    423.4,60.0
    426.8,48.3
    430.2,33.0
    433.6,33.0
    437,33.0
    440.4,33.0
    443.8,99.7
    447.2,161.7
    450.6,216.3
    454,261.2
    457.4,295.5
    460.8,318.8
    464.2,331.5
    467.6,334.5
    471,329.3
    474.4,318.0
    477.8,302.6
    481.2,284.9
    484.6,266.5
    488,248.7
    491.4,232.5
    494.8,218.5
    498.2,207.4
    501.6,199.6
    505,195.3
    508.4,194.5
    511.8,197.0
    515.2,202.3
    518.6,210.1
    522,219.5
    525.4,230.1
    528.8,241.2
    532.2,252.3
    535.6,262.9
    539,272.5
    542.4,280.9
    545.8,287.6
    549.2,292.6
    552.6,295.7
    556,296.9
    559.4,296.4
    562.8,294.3
    566.2,291.0
    569.6,286.7
    573,281.8
    576.4,276.7
    579.8,271.7
    583.2,267.2
    586.6,263.4
    590,260.6
    593.4,258.9
    596.8,258.4
    600.2,259.1
    603.6,260.8
    607,263.4
    610.4,266.8
    613.8,270.7
    617.2,274.9
    620.6,279.2
    624,283.5
    627.4,287.5
    630.8,291.1
    634.2,294.2
    637.6,296.6
    641,298.3
    644.4,299.2
    647.8,299.3
    651.2,298.6
    654.6,297.2
    658,295.1
    661.4,292.5
    664.8,289.4
    668.2,286.0
    671.6,282.4
    675,278.8
    678.4,275.3
    681.8,272.1
    685.2,269.3
    688.6,267.0
    692,265.4
    695.4,264.4
    698.8,264.2
    702.2,264.7
    705.6,265.8
    709,267.5
    712.4,269.7
    715.8,272.2
    719.2,274.9
    722.6,277.7
    726,280.5
    729.4,283.2
    732.8,285.8
    736.2,288.1
    739.6,290.2
    743,291.9
    746.4,293.4
    749.8,294.5
    753.2,295.3
    756.6,295.8
    760,296.1
  "/>

  <!-- 标注 y=1 处的点 (x=0) -->
  <circle cx="420" cy="61.25" r="4" fill="red" stroke="red"/>
  <text x="430" y="56" font-size="11" fill="red">(0, 1) 极限值</text>

  <!-- 图例 -->
  <rect x="600" y="70" width="150" height="30" fill="white" stroke="#ccc" rx="3"/>
  <line x1="610" y1="85" x2="640" y2="85" stroke="blue" stroke-width="2"/>
  <text x="645" y="90" font-size="12" fill="blue">y = sin(x)/x</text>
</svg>
