<?xml version="1.0" encoding="UTF-8"?>
<svg xmlns="http://www.w3.org/2000/svg" viewBox="0 0 760 560" width="760" height="560">
  <rect width="760" height="560" fill="white"/>
  <text x="380.0" y="26" text-anchor="middle" font-size="17" font-family="serif">
    韦达定理：g(x)=x&#178;-x-6 的两根之和与积
  </text>
  <g stroke="#ececec" stroke-width="0.5">
    <line x1="60.0" y1="60" x2="60.0" y2="500"/>
    <line x1="131.1" y1="60" x2="131.1" y2="500"/>
    <line x1="202.2" y1="60" x2="202.2" y2="500"/>
    <line x1="273.3" y1="60" x2="273.3" y2="500"/>
    <line x1="344.4" y1="60" x2="344.4" y2="500"/>
    <line x1="415.6" y1="60" x2="415.6" y2="500"/>
    <line x1="486.7" y1="60" x2="486.7" y2="500"/>
    <line x1="557.8" y1="60" x2="557.8" y2="500"/>
    <line x1="628.9" y1="60" x2="628.9" y2="500"/>
    <line x1="700.0" y1="60" x2="700.0" y2="500"/>
    <line x1="60" y1="500.0" x2="700" y2="500.0"/>
    <line x1="60" y1="445.0" x2="700" y2="445.0"/>
    <line x1="60" y1="390.0" x2="700" y2="390.0"/>
    <line x1="60" y1="335.0" x2="700" y2="335.0"/>
    <line x1="60" y1="280.0" x2="700" y2="280.0"/>
    <line x1="60" y1="225.0" x2="700" y2="225.0"/>
    <line x1="60" y1="170.0" x2="700" y2="170.0"/>
    <line x1="60" y1="115.0" x2="700" y2="115.0"/>
    <line x1="60" y1="60.0" x2="700" y2="60.0"/>
  </g>
  <line x1="60" y1="280.0" x2="700" y2="280.0" stroke="black" stroke-width="1"/>
  <line x1="344.4" y1="60" x2="344.4" y2="500" stroke="black" stroke-width="1"/>
  <text x="708" y="284.0" font-size="13" font-style="italic">x</text>
  <text x="350.4" y="56" font-size="13" font-style="italic">y</text>
  <text x="60.0" y="295.0" text-anchor="middle" font-size="10">-4</text>
  <text x="131.1" y="295.0" text-anchor="middle" font-size="10">-3</text>
  <text x="202.2" y="295.0" text-anchor="middle" font-size="10">-2</text>
  <text x="273.3" y="295.0" text-anchor="middle" font-size="10">-1</text>
  <text x="415.6" y="295.0" text-anchor="middle" font-size="10">1</text>
  <text x="486.7" y="295.0" text-anchor="middle" font-size="10">2</text>
  <text x="557.8" y="295.0" text-anchor="middle" font-size="10">3</text>
  <text x="628.9" y="295.0" text-anchor="middle" font-size="10">4</text>
  <text x="700.0" y="295.0" text-anchor="middle" font-size="10">5</text>
  <line x1="380.0" y1="60" x2="380.0" y2="500" stroke="#FF9800" stroke-width="1.5" stroke-dasharray="5 4"/>
  <text x="385.0" y="74.0" font-size="11" fill="#FF9800">对称轴 x=0.5</text>
  <polyline fill="none" stroke="#9C27B0" stroke-width="2.5" points="102.7,33.6 104.8,40.0 106.9,46.4 109.1,52.7 111.2,58.9 113.3,65.2 115.5,71.3 117.6,77.4 119.7,83.5 121.9,89.5 124.0,95.5 126.1,101.4 128.3,107.3 130.4,113.1 132.5,118.8 134.7,124.6 136.8,130.2 138.9,135.8 141.1,141.4 143.2,146.9 145.3,152.4 147.5,157.8 149.6,163.2 151.7,168.5 153.9,173.8 156.0,179.0 158.1,184.2 160.3,189.3 162.4,194.4 164.5,199.4 166.7,204.4 168.8,209.3 170.9,214.2 173.1,219.0 175.2,223.8 177.3,228.5 179.5,233.2 181.6,237.8 183.7,242.4 185.9,246.9 188.0,251.4 190.1,255.8 192.3,260.2 194.4,264.5 196.5,268.8 198.7,273.1 200.8,277.2 202.9,281.4 205.1,285.5 207.2,289.5 209.3,293.5 211.5,297.4 213.6,301.3 215.7,305.1 217.9,308.9 220.0,312.7 222.1,316.3 224.3,320.0 226.4,323.6 228.5,327.1 230.7,330.6 232.8,334.0 234.9,337.4 237.1,340.8 239.2,344.1 241.3,347.3 243.5,350.5 245.6,353.6 247.7,356.7 249.9,359.8 252.0,362.8 254.1,365.7 256.3,368.6 258.4,371.5 260.5,374.3 262.7,377.0 264.8,379.7 266.9,382.4 269.1,385.0 271.2,387.5 273.3,390.0 275.5,392.5 277.6,394.9 279.7,397.2 281.9,399.5 284.0,401.8 286.1,404.0 288.3,406.1 290.4,408.2 292.5,410.3 294.7,412.3 296.8,414.2 298.9,416.1 301.1,418.0 303.2,419.8 305.3,421.6 307.5,423.3 309.6,424.9 311.7,426.5 313.9,428.1 316.0,429.6 318.1,431.1 320.3,432.5 322.4,433.8 324.5,435.1 326.7,436.4 328.8,437.6 330.9,438.8 333.1,439.9 335.2,441.0 337.3,442.0 339.5,442.9 341.6,443.9 343.7,444.7 345.9,445.5 348.0,446.3 350.1,447.0 352.3,447.7 354.4,448.3 356.5,448.9 358.7,449.4 360.8,449.9 362.9,450.3 365.1,450.7 367.2,451.0 369.3,451.3 371.5,451.5 373.6,451.7 375.7,451.8 377.9,451.9 380.0,451.9 382.1,451.9 384.3,451.8 386.4,451.7 388.5,451.5 390.7,451.3 392.8,451.0 394.9,450.7 397.1,450.3 399.2,449.9 401.3,449.4 403.5,448.9 405.6,448.3 407.7,447.7 409.9,447.0 412.0,446.3 414.1,445.5 416.3,444.7 418.4,443.9 420.5,442.9 422.7,442.0 424.8,441.0 426.9,439.9 429.1,438.8 431.2,437.6 433.3,436.4 435.5,435.1 437.6,433.8 439.7,432.5 441.9,431.1 444.0,429.6 446.1,428.1 448.3,426.5 450.4,424.9 452.5,423.3 454.7,421.6 456.8,419.8 458.9,418.0 461.1,416.1 463.2,414.2 465.3,412.3 467.5,410.3 469.6,408.2 471.7,406.1 473.9,404.0 476.0,401.8 478.1,399.5 480.3,397.2 482.4,394.9 484.5,392.5 486.7,390.0 488.8,387.5 490.9,385.0 493.1,382.4 495.2,379.7 497.3,377.0 499.5,374.3 501.6,371.5 503.7,368.6 505.9,365.7 508.0,362.8 510.1,359.8 512.3,356.7 514.4,353.6 516.5,350.5 518.7,347.3 520.8,344.1 522.9,340.8 525.1,337.4 527.2,334.0 529.3,330.6 531.5,327.1 533.6,323.6 535.7,320.0 537.9,316.3 540.0,312.7 542.1,308.9 544.3,305.1 546.4,301.3 548.5,297.4 550.7,293.5 552.8,289.5 554.9,285.5 557.1,281.4 559.2,277.2 561.3,273.1 563.5,268.8 565.6,264.5 567.7,260.2 569.9,255.8 572.0,251.4 574.1,246.9 576.3,242.4 578.4,237.8 580.5,233.2 582.7,228.5 584.8,223.8 586.9,219.0 589.1,214.2 591.2,209.3 593.3,204.4 595.5,199.4 597.6,194.4 599.7,189.3 601.9,184.2 604.0,179.0 606.1,173.8 608.3,168.5 610.4,163.2 612.5,157.8 614.7,152.4 616.8,146.9 618.9,141.4 621.1,135.8 623.2,130.2 625.3,124.6 627.5,118.8 629.6,113.1 631.7,107.3 633.9,101.4 636.0,95.5 638.1,89.5 640.3,83.5 642.4,77.4 644.5,71.3 646.7,65.2 648.8,58.9 650.9,52.7 653.1,46.4 655.2,40.0 657.3,33.6"/>
  <circle cx="202.2" cy="280.0" r="5" fill="#F44336"/>
  <text x="198.2" y="270.0" font-size="12" fill="#F44336">x₁=-2</text>
  <circle cx="557.8" cy="280.0" r="5" fill="#F44336"/>
  <text x="553.8" y="270.0" font-size="12" fill="#F44336">x₂=3</text>
  <circle cx="380.0" cy="451.9" r="4" fill="#FF9800"/>

  <rect x="68" y="68" width="250" height="74" fill="white" stroke="#ccc" rx="4"/>
  <text x="80" y="90" font-size="12">两根之和  x&#8321;+x&#8322; = -B/a = 1</text>
  <text x="80" y="110" font-size="12">两根之积  x&#8321;&#183;x&#8322; = C/a = -6</text>
  <text x="80" y="130" font-size="12">对称轴在两根正中间 (1/2)</text>
</svg>
